<mxfile host="app.diagrams.net" agent="Mozilla/5.0 (Windows NT 10.0; Win64; x64) AppleWebKit/537.36 (KHTML, like Gecko) Chrome/135.0.0.0 Safari/537.36" version="27.0.6">
  <diagram name="Page-1" id="SIXZaA_8dgUku9ujib3P">
    <mxGraphModel dx="4984" dy="2843" grid="1" gridSize="10" guides="1" tooltips="1" connect="1" arrows="1" fold="1" page="1" pageScale="1" pageWidth="827" pageHeight="1169" math="0" shadow="0">
      <root>
        <mxCell id="0" />
        <mxCell id="1" parent="0" />
        <mxCell id="Mj7NcqfJF4TaLQdSg2ZQ-1" value="" style="endArrow=none;html=1;rounded=0;" edge="1" parent="1" source="Mj7NcqfJF4TaLQdSg2ZQ-44" target="Mj7NcqfJF4TaLQdSg2ZQ-136">
          <mxGeometry relative="1" as="geometry">
            <mxPoint x="100" y="200.00000000000023" as="sourcePoint" />
            <mxPoint x="-100" y="250" as="targetPoint" />
          </mxGeometry>
        </mxCell>
        <mxCell id="Mj7NcqfJF4TaLQdSg2ZQ-2" value="1" style="resizable=0;html=1;whiteSpace=wrap;align=right;verticalAlign=bottom;" connectable="0" vertex="1" parent="Mj7NcqfJF4TaLQdSg2ZQ-1">
          <mxGeometry x="1" relative="1" as="geometry">
            <mxPoint x="-14" y="5" as="offset" />
          </mxGeometry>
        </mxCell>
        <mxCell id="Mj7NcqfJF4TaLQdSg2ZQ-3" value="" style="shape=link;html=1;rounded=0;" edge="1" parent="Mj7NcqfJF4TaLQdSg2ZQ-1" target="Mj7NcqfJF4TaLQdSg2ZQ-145">
          <mxGeometry relative="1" as="geometry">
            <mxPoint x="-265" y="388.3400000000001" as="sourcePoint" />
            <mxPoint x="-265" y="304.17" as="targetPoint" />
          </mxGeometry>
        </mxCell>
        <mxCell id="Mj7NcqfJF4TaLQdSg2ZQ-4" value="N" style="resizable=0;html=1;whiteSpace=wrap;align=right;verticalAlign=bottom;" connectable="0" vertex="1" parent="Mj7NcqfJF4TaLQdSg2ZQ-3">
          <mxGeometry x="1" relative="1" as="geometry">
            <mxPoint x="-10" y="20" as="offset" />
          </mxGeometry>
        </mxCell>
        <mxCell id="Mj7NcqfJF4TaLQdSg2ZQ-5" value="" style="shape=link;html=1;rounded=0;" edge="1" parent="1" target="Mj7NcqfJF4TaLQdSg2ZQ-136">
          <mxGeometry relative="1" as="geometry">
            <mxPoint x="60" y="384.1700000000001" as="sourcePoint" />
            <mxPoint x="60" y="300" as="targetPoint" />
          </mxGeometry>
        </mxCell>
        <mxCell id="Mj7NcqfJF4TaLQdSg2ZQ-6" value="N" style="resizable=0;html=1;whiteSpace=wrap;align=right;verticalAlign=bottom;" connectable="0" vertex="1" parent="Mj7NcqfJF4TaLQdSg2ZQ-5">
          <mxGeometry x="1" relative="1" as="geometry">
            <mxPoint x="-6" y="21" as="offset" />
          </mxGeometry>
        </mxCell>
        <mxCell id="Mj7NcqfJF4TaLQdSg2ZQ-7" value="기록일" style="ellipse;whiteSpace=wrap;html=1;" vertex="1" parent="1">
          <mxGeometry x="-30" y="350" width="70" height="30" as="geometry" />
        </mxCell>
        <mxCell id="Mj7NcqfJF4TaLQdSg2ZQ-8" value="" style="endArrow=none;html=1;rounded=0;" edge="1" parent="1" source="Mj7NcqfJF4TaLQdSg2ZQ-135" target="Mj7NcqfJF4TaLQdSg2ZQ-7">
          <mxGeometry relative="1" as="geometry">
            <mxPoint x="26.443816337960698" y="384.1700000000001" as="sourcePoint" />
            <mxPoint x="220" y="370.17" as="targetPoint" />
          </mxGeometry>
        </mxCell>
        <mxCell id="Mj7NcqfJF4TaLQdSg2ZQ-9" value="작성하다" style="shape=rhombus;perimeter=rhombusPerimeter;whiteSpace=wrap;html=1;align=center;" vertex="1" parent="1">
          <mxGeometry x="170" y="80" width="120" height="60" as="geometry" />
        </mxCell>
        <mxCell id="Mj7NcqfJF4TaLQdSg2ZQ-10" value="참조하다" style="shape=rhombus;perimeter=rhombusPerimeter;whiteSpace=wrap;html=1;align=center;" vertex="1" parent="1">
          <mxGeometry x="280.00000000000006" y="570" width="120" height="60" as="geometry" />
        </mxCell>
        <mxCell id="Mj7NcqfJF4TaLQdSg2ZQ-11" value="" style="endArrow=none;html=1;rounded=0;" edge="1" parent="1" source="Mj7NcqfJF4TaLQdSg2ZQ-135" target="Mj7NcqfJF4TaLQdSg2ZQ-10">
          <mxGeometry relative="1" as="geometry">
            <mxPoint x="-100" y="454.1700000000001" as="sourcePoint" />
            <mxPoint x="480" y="430" as="targetPoint" />
            <Array as="points">
              <mxPoint x="60" y="600" />
            </Array>
          </mxGeometry>
        </mxCell>
        <mxCell id="Mj7NcqfJF4TaLQdSg2ZQ-12" value="1" style="resizable=0;html=1;whiteSpace=wrap;align=right;verticalAlign=bottom;" connectable="0" vertex="1" parent="Mj7NcqfJF4TaLQdSg2ZQ-11">
          <mxGeometry x="1" relative="1" as="geometry">
            <mxPoint as="offset" />
          </mxGeometry>
        </mxCell>
        <mxCell id="Mj7NcqfJF4TaLQdSg2ZQ-13" value="작성날자" style="ellipse;whiteSpace=wrap;html=1;" vertex="1" parent="1">
          <mxGeometry x="623.75" y="-170" width="70" height="30" as="geometry" />
        </mxCell>
        <mxCell id="Mj7NcqfJF4TaLQdSg2ZQ-14" value="내용" style="ellipse;whiteSpace=wrap;html=1;" vertex="1" parent="1">
          <mxGeometry x="605" y="-210" width="70" height="30" as="geometry" />
        </mxCell>
        <mxCell id="Mj7NcqfJF4TaLQdSg2ZQ-15" value="&lt;u&gt;댓글ID&lt;/u&gt;" style="ellipse;whiteSpace=wrap;html=1;" vertex="1" parent="1">
          <mxGeometry x="460" y="-220" width="70" height="30" as="geometry" />
        </mxCell>
        <mxCell id="Mj7NcqfJF4TaLQdSg2ZQ-16" value="&lt;u&gt;글ID&lt;/u&gt;" style="ellipse;whiteSpace=wrap;html=1;" vertex="1" parent="1">
          <mxGeometry x="535" y="-220" width="70" height="30" as="geometry" />
        </mxCell>
        <mxCell id="Mj7NcqfJF4TaLQdSg2ZQ-17" value="댓글" style="shape=ext;margin=3;double=1;whiteSpace=wrap;html=1;align=center;" vertex="1" parent="1">
          <mxGeometry x="490.49" y="-180" width="130" height="70" as="geometry" />
        </mxCell>
        <mxCell id="Mj7NcqfJF4TaLQdSg2ZQ-18" value="" style="endArrow=none;html=1;rounded=0;" edge="1" parent="1" source="Mj7NcqfJF4TaLQdSg2ZQ-15" target="Mj7NcqfJF4TaLQdSg2ZQ-17">
          <mxGeometry relative="1" as="geometry">
            <mxPoint x="427.5" y="159.47" as="sourcePoint" />
            <mxPoint x="587.5" y="159.47" as="targetPoint" />
          </mxGeometry>
        </mxCell>
        <mxCell id="Mj7NcqfJF4TaLQdSg2ZQ-19" value="" style="endArrow=none;html=1;rounded=0;" edge="1" parent="1" source="Mj7NcqfJF4TaLQdSg2ZQ-16" target="Mj7NcqfJF4TaLQdSg2ZQ-17">
          <mxGeometry relative="1" as="geometry">
            <mxPoint x="427.5" y="159.47" as="sourcePoint" />
            <mxPoint x="587.5" y="159.47" as="targetPoint" />
          </mxGeometry>
        </mxCell>
        <mxCell id="Mj7NcqfJF4TaLQdSg2ZQ-20" value="" style="endArrow=none;html=1;rounded=0;exitX=0;exitY=1;exitDx=0;exitDy=0;" edge="1" parent="1" source="Mj7NcqfJF4TaLQdSg2ZQ-14" target="Mj7NcqfJF4TaLQdSg2ZQ-17">
          <mxGeometry relative="1" as="geometry">
            <mxPoint x="427.5" y="159.47" as="sourcePoint" />
            <mxPoint x="587.5" y="159.47" as="targetPoint" />
          </mxGeometry>
        </mxCell>
        <mxCell id="Mj7NcqfJF4TaLQdSg2ZQ-21" value="" style="endArrow=none;html=1;rounded=0;" edge="1" parent="1" source="Mj7NcqfJF4TaLQdSg2ZQ-17" target="Mj7NcqfJF4TaLQdSg2ZQ-13">
          <mxGeometry relative="1" as="geometry">
            <mxPoint x="427.5" y="159.47" as="sourcePoint" />
            <mxPoint x="587.5" y="159.47" as="targetPoint" />
          </mxGeometry>
        </mxCell>
        <mxCell id="Mj7NcqfJF4TaLQdSg2ZQ-22" value="등록되다" style="shape=rhombus;double=1;perimeter=rhombusPerimeter;whiteSpace=wrap;html=1;align=center;" vertex="1" parent="1">
          <mxGeometry x="495.49" y="-43" width="120" height="60" as="geometry" />
        </mxCell>
        <mxCell id="Mj7NcqfJF4TaLQdSg2ZQ-23" value="작성하다" style="shape=rhombus;perimeter=rhombusPerimeter;whiteSpace=wrap;html=1;align=center;" vertex="1" parent="1">
          <mxGeometry x="170.00000000000006" y="-55" width="120" height="60" as="geometry" />
        </mxCell>
        <mxCell id="Mj7NcqfJF4TaLQdSg2ZQ-24" value="닉네임" style="ellipse;whiteSpace=wrap;html=1;" vertex="1" parent="1">
          <mxGeometry x="-190" y="-60" width="70" height="30" as="geometry" />
        </mxCell>
        <mxCell id="Mj7NcqfJF4TaLQdSg2ZQ-25" value="전화번호" style="ellipse;whiteSpace=wrap;html=1;" vertex="1" parent="1">
          <mxGeometry x="-135" y="150" width="70" height="30" as="geometry" />
        </mxCell>
        <mxCell id="Mj7NcqfJF4TaLQdSg2ZQ-26" value="이메일" style="ellipse;whiteSpace=wrap;html=1;" vertex="1" parent="1">
          <mxGeometry x="-70" y="-60" width="70" height="30" as="geometry" />
        </mxCell>
        <mxCell id="Mj7NcqfJF4TaLQdSg2ZQ-27" value="성별" style="ellipse;whiteSpace=wrap;html=1;" vertex="1" parent="1">
          <mxGeometry x="-20" y="-30" width="70" height="30" as="geometry" />
        </mxCell>
        <mxCell id="Mj7NcqfJF4TaLQdSg2ZQ-28" value="" style="endArrow=none;html=1;rounded=0;" edge="1" parent="1" source="Mj7NcqfJF4TaLQdSg2ZQ-44" target="Mj7NcqfJF4TaLQdSg2ZQ-25">
          <mxGeometry width="50" height="50" relative="1" as="geometry">
            <mxPoint x="-2.2737367544323206e-13" y="-110" as="sourcePoint" />
            <mxPoint x="110" y="-210" as="targetPoint" />
          </mxGeometry>
        </mxCell>
        <mxCell id="Mj7NcqfJF4TaLQdSg2ZQ-29" value="" style="endArrow=none;html=1;rounded=0;" edge="1" parent="1" source="Mj7NcqfJF4TaLQdSg2ZQ-44" target="Mj7NcqfJF4TaLQdSg2ZQ-26">
          <mxGeometry width="50" height="50" relative="1" as="geometry">
            <mxPoint y="-110" as="sourcePoint" />
            <mxPoint x="140" y="-190" as="targetPoint" />
          </mxGeometry>
        </mxCell>
        <mxCell id="Mj7NcqfJF4TaLQdSg2ZQ-30" value="" style="endArrow=none;html=1;rounded=0;" edge="1" parent="1" source="Mj7NcqfJF4TaLQdSg2ZQ-44" target="Mj7NcqfJF4TaLQdSg2ZQ-27">
          <mxGeometry width="50" height="50" relative="1" as="geometry">
            <mxPoint x="-2.2737367544323206e-13" y="-110" as="sourcePoint" />
            <mxPoint x="140" y="-190" as="targetPoint" />
          </mxGeometry>
        </mxCell>
        <mxCell id="Mj7NcqfJF4TaLQdSg2ZQ-31" value="본문" style="ellipse;whiteSpace=wrap;html=1;container=0;" vertex="1" parent="1">
          <mxGeometry x="644.13" y="60" width="70" height="30" as="geometry" />
        </mxCell>
        <mxCell id="Mj7NcqfJF4TaLQdSg2ZQ-32" value="" style="endArrow=none;html=1;rounded=0;" edge="1" parent="1" source="Mj7NcqfJF4TaLQdSg2ZQ-31" target="Mj7NcqfJF4TaLQdSg2ZQ-33">
          <mxGeometry relative="1" as="geometry">
            <mxPoint x="502.23" y="295" as="sourcePoint" />
            <mxPoint x="623.9700000000003" y="79.65866257154812" as="targetPoint" />
          </mxGeometry>
        </mxCell>
        <mxCell id="Mj7NcqfJF4TaLQdSg2ZQ-33" value="경로 게시판" style="rounded=0;whiteSpace=wrap;html=1;container=0;" vertex="1" parent="1">
          <mxGeometry x="495.49" y="80" width="120" height="60" as="geometry" />
        </mxCell>
        <mxCell id="Mj7NcqfJF4TaLQdSg2ZQ-34" value="&lt;u&gt;글ID&lt;/u&gt;" style="ellipse;whiteSpace=wrap;html=1;container=0;" vertex="1" parent="1">
          <mxGeometry x="644.13" y="132.5" width="70" height="30" as="geometry" />
        </mxCell>
        <mxCell id="Mj7NcqfJF4TaLQdSg2ZQ-35" value="제목" style="ellipse;whiteSpace=wrap;html=1;container=0;" vertex="1" parent="1">
          <mxGeometry x="642.06" y="95" width="70" height="30" as="geometry" />
        </mxCell>
        <mxCell id="Mj7NcqfJF4TaLQdSg2ZQ-36" value="작성날자" style="ellipse;whiteSpace=wrap;html=1;container=0;" vertex="1" parent="1">
          <mxGeometry x="644.13" y="20" width="70" height="30" as="geometry" />
        </mxCell>
        <mxCell id="Mj7NcqfJF4TaLQdSg2ZQ-37" value="" style="endArrow=none;html=1;rounded=0;" edge="1" parent="1" source="Mj7NcqfJF4TaLQdSg2ZQ-34" target="Mj7NcqfJF4TaLQdSg2ZQ-33">
          <mxGeometry relative="1" as="geometry">
            <mxPoint x="255.26999999999998" y="390" as="sourcePoint" />
            <mxPoint x="465.27" y="320.0000000000002" as="targetPoint" />
          </mxGeometry>
        </mxCell>
        <mxCell id="Mj7NcqfJF4TaLQdSg2ZQ-38" value="" style="endArrow=none;html=1;rounded=0;" edge="1" parent="1" source="Mj7NcqfJF4TaLQdSg2ZQ-36" target="Mj7NcqfJF4TaLQdSg2ZQ-33">
          <mxGeometry relative="1" as="geometry">
            <mxPoint x="493.75" y="330" as="sourcePoint" />
            <mxPoint x="703.75" y="260.0000000000002" as="targetPoint" />
          </mxGeometry>
        </mxCell>
        <mxCell id="Mj7NcqfJF4TaLQdSg2ZQ-39" value="" style="endArrow=none;html=1;rounded=0;" edge="1" parent="1" source="Mj7NcqfJF4TaLQdSg2ZQ-35" target="Mj7NcqfJF4TaLQdSg2ZQ-33">
          <mxGeometry relative="1" as="geometry">
            <mxPoint x="502.23" y="295" as="sourcePoint" />
            <mxPoint x="623.9700000000003" y="92.56339581036377" as="targetPoint" />
          </mxGeometry>
        </mxCell>
        <mxCell id="Mj7NcqfJF4TaLQdSg2ZQ-40" value="" style="shape=link;html=1;rounded=0;" edge="1" parent="1" source="Mj7NcqfJF4TaLQdSg2ZQ-17" target="Mj7NcqfJF4TaLQdSg2ZQ-22">
          <mxGeometry relative="1" as="geometry">
            <mxPoint x="508.13" y="-10.530000000000001" as="sourcePoint" />
            <mxPoint x="668.13" y="-10.530000000000001" as="targetPoint" />
          </mxGeometry>
        </mxCell>
        <mxCell id="Mj7NcqfJF4TaLQdSg2ZQ-41" value="1" style="resizable=0;html=1;whiteSpace=wrap;align=right;verticalAlign=bottom;direction=south;" connectable="0" vertex="1" parent="Mj7NcqfJF4TaLQdSg2ZQ-40">
          <mxGeometry x="1" relative="1" as="geometry">
            <mxPoint x="-5" as="offset" />
          </mxGeometry>
        </mxCell>
        <mxCell id="Mj7NcqfJF4TaLQdSg2ZQ-42" value="" style="endArrow=none;html=1;rounded=0;" edge="1" parent="1" source="Mj7NcqfJF4TaLQdSg2ZQ-33" target="Mj7NcqfJF4TaLQdSg2ZQ-22">
          <mxGeometry relative="1" as="geometry">
            <mxPoint x="545.27" y="190" as="sourcePoint" />
            <mxPoint x="235.26999999999998" y="40" as="targetPoint" />
          </mxGeometry>
        </mxCell>
        <mxCell id="Mj7NcqfJF4TaLQdSg2ZQ-43" value="N" style="resizable=0;html=1;whiteSpace=wrap;align=right;verticalAlign=bottom;" connectable="0" vertex="1" parent="Mj7NcqfJF4TaLQdSg2ZQ-42">
          <mxGeometry x="1" relative="1" as="geometry">
            <mxPoint x="-4" y="20" as="offset" />
          </mxGeometry>
        </mxCell>
        <mxCell id="Mj7NcqfJF4TaLQdSg2ZQ-44" value="사용자" style="rounded=0;whiteSpace=wrap;html=1;" vertex="1" parent="1">
          <mxGeometry x="-160" y="80" width="120" height="60" as="geometry" />
        </mxCell>
        <mxCell id="Mj7NcqfJF4TaLQdSg2ZQ-45" value="ID" style="ellipse;whiteSpace=wrap;html=1;" vertex="1" parent="1">
          <mxGeometry x="-253" y="3" width="70" height="30" as="geometry" />
        </mxCell>
        <mxCell id="Mj7NcqfJF4TaLQdSg2ZQ-46" value="&lt;u&gt;사용자ID&lt;/u&gt;" style="ellipse;whiteSpace=wrap;html=1;" vertex="1" parent="1">
          <mxGeometry x="-269" y="36" width="70" height="30" as="geometry" />
        </mxCell>
        <mxCell id="Mj7NcqfJF4TaLQdSg2ZQ-47" value="" style="endArrow=none;html=1;rounded=0;" edge="1" parent="1" source="Mj7NcqfJF4TaLQdSg2ZQ-44" target="Mj7NcqfJF4TaLQdSg2ZQ-45">
          <mxGeometry width="50" height="50" relative="1" as="geometry">
            <mxPoint x="-70" y="110" as="sourcePoint" />
            <mxPoint x="-20" y="60" as="targetPoint" />
          </mxGeometry>
        </mxCell>
        <mxCell id="Mj7NcqfJF4TaLQdSg2ZQ-48" value="" style="endArrow=none;html=1;rounded=0;" edge="1" parent="1" source="Mj7NcqfJF4TaLQdSg2ZQ-44" target="Mj7NcqfJF4TaLQdSg2ZQ-46">
          <mxGeometry width="50" height="50" relative="1" as="geometry">
            <mxPoint x="-70" y="110" as="sourcePoint" />
            <mxPoint x="-20" y="60" as="targetPoint" />
          </mxGeometry>
        </mxCell>
        <mxCell id="Mj7NcqfJF4TaLQdSg2ZQ-49" value="" style="endArrow=none;html=1;rounded=0;" edge="1" parent="1" source="Mj7NcqfJF4TaLQdSg2ZQ-44" target="Mj7NcqfJF4TaLQdSg2ZQ-83">
          <mxGeometry width="50" height="50" relative="1" as="geometry">
            <mxPoint x="-100" y="80" as="sourcePoint" />
            <mxPoint x="-20" y="60" as="targetPoint" />
          </mxGeometry>
        </mxCell>
        <mxCell id="Mj7NcqfJF4TaLQdSg2ZQ-50" value="" style="endArrow=none;html=1;rounded=0;" edge="1" parent="1" source="Mj7NcqfJF4TaLQdSg2ZQ-44" target="Mj7NcqfJF4TaLQdSg2ZQ-24">
          <mxGeometry width="50" height="50" relative="1" as="geometry">
            <mxPoint x="-100" y="80" as="sourcePoint" />
            <mxPoint x="-20" y="60" as="targetPoint" />
          </mxGeometry>
        </mxCell>
        <mxCell id="Mj7NcqfJF4TaLQdSg2ZQ-51" value="생성일" style="ellipse;whiteSpace=wrap;html=1;" vertex="1" parent="1">
          <mxGeometry x="-260" y="70" width="70" height="30" as="geometry" />
        </mxCell>
        <mxCell id="Mj7NcqfJF4TaLQdSg2ZQ-52" value="" style="endArrow=none;html=1;rounded=0;" edge="1" parent="1" source="Mj7NcqfJF4TaLQdSg2ZQ-44" target="Mj7NcqfJF4TaLQdSg2ZQ-51">
          <mxGeometry relative="1" as="geometry">
            <mxPoint x="-100" y="150" as="sourcePoint" />
            <mxPoint x="60" y="150" as="targetPoint" />
          </mxGeometry>
        </mxCell>
        <mxCell id="Mj7NcqfJF4TaLQdSg2ZQ-53" value="실시간 위험 수집" style="rounded=0;whiteSpace=wrap;html=1;container=0;" vertex="1" parent="1">
          <mxGeometry x="-1160" y="244.99999999999994" width="120" height="60" as="geometry" />
        </mxCell>
        <mxCell id="Mj7NcqfJF4TaLQdSg2ZQ-54" value="위치" style="ellipse;whiteSpace=wrap;html=1;container=0;" vertex="1" parent="1">
          <mxGeometry x="-1220" y="209.99999999999994" width="70" height="30" as="geometry" />
        </mxCell>
        <mxCell id="Mj7NcqfJF4TaLQdSg2ZQ-55" value="발생시간" style="ellipse;whiteSpace=wrap;html=1;container=0;" vertex="1" parent="1">
          <mxGeometry x="-1135" y="199.99999999999994" width="70" height="30" as="geometry" />
        </mxCell>
        <mxCell id="Mj7NcqfJF4TaLQdSg2ZQ-56" value="&lt;u&gt;수집ID&lt;/u&gt;" style="ellipse;whiteSpace=wrap;html=1;container=0;" vertex="1" parent="1">
          <mxGeometry x="-1240" y="259.16999999999996" width="70" height="30" as="geometry" />
        </mxCell>
        <mxCell id="Mj7NcqfJF4TaLQdSg2ZQ-57" value="" style="endArrow=none;html=1;rounded=0;" edge="1" parent="1" source="Mj7NcqfJF4TaLQdSg2ZQ-56" target="Mj7NcqfJF4TaLQdSg2ZQ-53">
          <mxGeometry relative="1" as="geometry">
            <mxPoint x="-1340" y="209.99999999999994" as="sourcePoint" />
            <mxPoint x="-1180" y="209.99999999999994" as="targetPoint" />
          </mxGeometry>
        </mxCell>
        <mxCell id="Mj7NcqfJF4TaLQdSg2ZQ-58" value="" style="endArrow=none;html=1;rounded=0;" edge="1" parent="1" source="Mj7NcqfJF4TaLQdSg2ZQ-54" target="Mj7NcqfJF4TaLQdSg2ZQ-53">
          <mxGeometry relative="1" as="geometry">
            <mxPoint x="-1340" y="209.99999999999994" as="sourcePoint" />
            <mxPoint x="-1180" y="209.99999999999994" as="targetPoint" />
          </mxGeometry>
        </mxCell>
        <mxCell id="Mj7NcqfJF4TaLQdSg2ZQ-59" value="" style="endArrow=none;html=1;rounded=0;" edge="1" parent="1" source="Mj7NcqfJF4TaLQdSg2ZQ-55" target="Mj7NcqfJF4TaLQdSg2ZQ-53">
          <mxGeometry relative="1" as="geometry">
            <mxPoint x="-1340" y="209.99999999999994" as="sourcePoint" />
            <mxPoint x="-1180" y="209.99999999999994" as="targetPoint" />
          </mxGeometry>
        </mxCell>
        <mxCell id="Mj7NcqfJF4TaLQdSg2ZQ-60" value="신고내역" style="rounded=0;whiteSpace=wrap;html=1;container=0;" vertex="1" parent="1">
          <mxGeometry x="495.49" y="325" width="120" height="60" as="geometry" />
        </mxCell>
        <mxCell id="Mj7NcqfJF4TaLQdSg2ZQ-61" value="글ID" style="ellipse;whiteSpace=wrap;html=1;container=0;" vertex="1" parent="1">
          <mxGeometry x="425.49" y="395" width="70" height="30" as="geometry" />
        </mxCell>
        <mxCell id="Mj7NcqfJF4TaLQdSg2ZQ-62" value="내용" style="ellipse;whiteSpace=wrap;html=1;container=0;" vertex="1" parent="1">
          <mxGeometry x="615.49" y="280" width="70" height="30" as="geometry" />
        </mxCell>
        <mxCell id="Mj7NcqfJF4TaLQdSg2ZQ-63" value="신고날자" style="ellipse;whiteSpace=wrap;html=1;container=0;" vertex="1" parent="1">
          <mxGeometry x="630" y="320" width="70" height="30" as="geometry" />
        </mxCell>
        <mxCell id="Mj7NcqfJF4TaLQdSg2ZQ-64" value="&lt;u&gt;신고ID&lt;/u&gt;" style="ellipse;whiteSpace=wrap;html=1;container=0;" vertex="1" parent="1">
          <mxGeometry x="400" y="350" width="70" height="30" as="geometry" />
        </mxCell>
        <mxCell id="Mj7NcqfJF4TaLQdSg2ZQ-65" value="" style="endArrow=none;html=1;rounded=0;" edge="1" parent="1" source="Mj7NcqfJF4TaLQdSg2ZQ-60" target="Mj7NcqfJF4TaLQdSg2ZQ-63">
          <mxGeometry relative="1" as="geometry">
            <mxPoint x="365.49" y="205.00000000000003" as="sourcePoint" />
            <mxPoint x="525.49" y="205.00000000000003" as="targetPoint" />
          </mxGeometry>
        </mxCell>
        <mxCell id="Mj7NcqfJF4TaLQdSg2ZQ-66" value="" style="endArrow=none;html=1;rounded=0;" edge="1" parent="1" source="Mj7NcqfJF4TaLQdSg2ZQ-60" target="Mj7NcqfJF4TaLQdSg2ZQ-64">
          <mxGeometry relative="1" as="geometry">
            <mxPoint x="316.74" y="275" as="sourcePoint" />
            <mxPoint x="476.74" y="275" as="targetPoint" />
          </mxGeometry>
        </mxCell>
        <mxCell id="Mj7NcqfJF4TaLQdSg2ZQ-67" value="" style="endArrow=none;html=1;rounded=0;" edge="1" parent="1" source="Mj7NcqfJF4TaLQdSg2ZQ-62" target="Mj7NcqfJF4TaLQdSg2ZQ-60">
          <mxGeometry relative="1" as="geometry">
            <mxPoint x="271.74" y="340" as="sourcePoint" />
            <mxPoint x="431.74" y="340" as="targetPoint" />
          </mxGeometry>
        </mxCell>
        <mxCell id="Mj7NcqfJF4TaLQdSg2ZQ-68" value="" style="endArrow=none;html=1;rounded=0;" edge="1" parent="1" source="Mj7NcqfJF4TaLQdSg2ZQ-60" target="Mj7NcqfJF4TaLQdSg2ZQ-61">
          <mxGeometry relative="1" as="geometry">
            <mxPoint x="264.87" y="235.00000000000003" as="sourcePoint" />
            <mxPoint x="424.87" y="235.00000000000003" as="targetPoint" />
          </mxGeometry>
        </mxCell>
        <mxCell id="Mj7NcqfJF4TaLQdSg2ZQ-69" value="신고하다" style="shape=rhombus;perimeter=rhombusPerimeter;whiteSpace=wrap;html=1;align=center;" vertex="1" parent="1">
          <mxGeometry x="185" y="229.17" width="120" height="60" as="geometry" />
        </mxCell>
        <mxCell id="Mj7NcqfJF4TaLQdSg2ZQ-70" value="참조하다" style="shape=rhombus;perimeter=rhombusPerimeter;whiteSpace=wrap;html=1;align=center;" vertex="1" parent="1">
          <mxGeometry x="495.49" y="236" width="120" height="60" as="geometry" />
        </mxCell>
        <mxCell id="Mj7NcqfJF4TaLQdSg2ZQ-71" value="" style="shape=link;html=1;rounded=0;" edge="1" parent="1" source="Mj7NcqfJF4TaLQdSg2ZQ-60" target="Mj7NcqfJF4TaLQdSg2ZQ-70">
          <mxGeometry relative="1" as="geometry">
            <mxPoint x="390" y="250" as="sourcePoint" />
            <mxPoint x="520" y="200" as="targetPoint" />
          </mxGeometry>
        </mxCell>
        <mxCell id="Mj7NcqfJF4TaLQdSg2ZQ-72" value="&amp;nbsp;N" style="resizable=0;html=1;whiteSpace=wrap;align=right;verticalAlign=bottom;" connectable="0" vertex="1" parent="Mj7NcqfJF4TaLQdSg2ZQ-71">
          <mxGeometry x="1" relative="1" as="geometry">
            <mxPoint x="-5" y="17" as="offset" />
          </mxGeometry>
        </mxCell>
        <mxCell id="Mj7NcqfJF4TaLQdSg2ZQ-73" value="" style="endArrow=none;html=1;rounded=0;" edge="1" parent="1" source="Mj7NcqfJF4TaLQdSg2ZQ-33" target="Mj7NcqfJF4TaLQdSg2ZQ-70">
          <mxGeometry relative="1" as="geometry">
            <mxPoint x="-330.76" y="850" as="sourcePoint" />
            <mxPoint x="550" y="200" as="targetPoint" />
          </mxGeometry>
        </mxCell>
        <mxCell id="Mj7NcqfJF4TaLQdSg2ZQ-74" value="1" style="resizable=0;html=1;whiteSpace=wrap;align=right;verticalAlign=bottom;" connectable="0" vertex="1" parent="Mj7NcqfJF4TaLQdSg2ZQ-73">
          <mxGeometry x="1" relative="1" as="geometry">
            <mxPoint x="-4" as="offset" />
          </mxGeometry>
        </mxCell>
        <mxCell id="Mj7NcqfJF4TaLQdSg2ZQ-75" value="개인 메세지" style="rounded=0;whiteSpace=wrap;html=1;" vertex="1" parent="1">
          <mxGeometry x="-800" y="80" width="120" height="60" as="geometry" />
        </mxCell>
        <mxCell id="Mj7NcqfJF4TaLQdSg2ZQ-76" value="내용" style="ellipse;whiteSpace=wrap;html=1;" vertex="1" parent="1">
          <mxGeometry x="-720" y="20" width="70" height="30" as="geometry" />
        </mxCell>
        <mxCell id="Mj7NcqfJF4TaLQdSg2ZQ-77" value="보낸날자" style="ellipse;whiteSpace=wrap;html=1;" vertex="1" parent="1">
          <mxGeometry x="-670" y="50" width="70" height="30" as="geometry" />
        </mxCell>
        <mxCell id="Mj7NcqfJF4TaLQdSg2ZQ-78" value="" style="endArrow=none;html=1;rounded=0;" edge="1" parent="1" source="Mj7NcqfJF4TaLQdSg2ZQ-77" target="Mj7NcqfJF4TaLQdSg2ZQ-75">
          <mxGeometry relative="1" as="geometry">
            <mxPoint x="-885" y="22.5" as="sourcePoint" />
            <mxPoint x="-725" y="22.5" as="targetPoint" />
          </mxGeometry>
        </mxCell>
        <mxCell id="Mj7NcqfJF4TaLQdSg2ZQ-79" value="" style="endArrow=none;html=1;rounded=0;" edge="1" parent="1" source="Mj7NcqfJF4TaLQdSg2ZQ-76" target="Mj7NcqfJF4TaLQdSg2ZQ-75">
          <mxGeometry relative="1" as="geometry">
            <mxPoint x="-930.0022863495446" y="132.4976225576075" as="sourcePoint" />
            <mxPoint x="-698.45" y="163.08" as="targetPoint" />
          </mxGeometry>
        </mxCell>
        <mxCell id="Mj7NcqfJF4TaLQdSg2ZQ-80" value="&lt;u&gt;DM-ID&lt;/u&gt;" style="ellipse;whiteSpace=wrap;html=1;" vertex="1" parent="1">
          <mxGeometry x="-870" y="50" width="70" height="30" as="geometry" />
        </mxCell>
        <mxCell id="Mj7NcqfJF4TaLQdSg2ZQ-81" value="" style="endArrow=none;html=1;rounded=0;" edge="1" parent="1" source="Mj7NcqfJF4TaLQdSg2ZQ-80" target="Mj7NcqfJF4TaLQdSg2ZQ-75">
          <mxGeometry relative="1" as="geometry">
            <mxPoint x="-950" y="62.5" as="sourcePoint" />
            <mxPoint x="-790" y="62.5" as="targetPoint" />
          </mxGeometry>
        </mxCell>
        <mxCell id="Mj7NcqfJF4TaLQdSg2ZQ-82" value="메세지를 받다" style="shape=rhombus;perimeter=rhombusPerimeter;whiteSpace=wrap;html=1;align=center;" vertex="1" parent="1">
          <mxGeometry x="-510" y="80" width="120" height="60" as="geometry" />
        </mxCell>
        <mxCell id="Mj7NcqfJF4TaLQdSg2ZQ-83" value="비밀번호" style="ellipse;whiteSpace=wrap;html=1;" vertex="1" parent="1">
          <mxGeometry x="-221" y="-28" width="70" height="30" as="geometry" />
        </mxCell>
        <mxCell id="Mj7NcqfJF4TaLQdSg2ZQ-84" value="역할" style="ellipse;whiteSpace=wrap;html=1;" vertex="1" parent="1">
          <mxGeometry x="10" y="6" width="70" height="30" as="geometry" />
        </mxCell>
        <mxCell id="Mj7NcqfJF4TaLQdSg2ZQ-85" value="" style="endArrow=none;html=1;rounded=0;" edge="1" parent="1" source="Mj7NcqfJF4TaLQdSg2ZQ-44" target="Mj7NcqfJF4TaLQdSg2ZQ-84">
          <mxGeometry relative="1" as="geometry">
            <mxPoint x="-230" y="10" as="sourcePoint" />
            <mxPoint x="-70" y="10" as="targetPoint" />
          </mxGeometry>
        </mxCell>
        <mxCell id="Mj7NcqfJF4TaLQdSg2ZQ-86" value="알람을 받다" style="shape=rhombus;perimeter=rhombusPerimeter;whiteSpace=wrap;html=1;align=center;" vertex="1" parent="1">
          <mxGeometry x="-510" y="170" width="120" height="60" as="geometry" />
        </mxCell>
        <mxCell id="Mj7NcqfJF4TaLQdSg2ZQ-87" value="관리자ID" style="ellipse;whiteSpace=wrap;html=1;" vertex="1" parent="1">
          <mxGeometry x="-810" y="20" width="70" height="30" as="geometry" />
        </mxCell>
        <mxCell id="Mj7NcqfJF4TaLQdSg2ZQ-88" value="" style="endArrow=none;html=1;rounded=0;" edge="1" parent="1" source="Mj7NcqfJF4TaLQdSg2ZQ-87" target="Mj7NcqfJF4TaLQdSg2ZQ-75">
          <mxGeometry relative="1" as="geometry">
            <mxPoint x="-920" y="117.5" as="sourcePoint" />
            <mxPoint x="-760" y="117.5" as="targetPoint" />
          </mxGeometry>
        </mxCell>
        <mxCell id="Mj7NcqfJF4TaLQdSg2ZQ-89" value="실시간 위험 알람" style="rounded=0;whiteSpace=wrap;html=1;" vertex="1" parent="1">
          <mxGeometry x="-800" y="244.17000000000002" width="120" height="60" as="geometry" />
        </mxCell>
        <mxCell id="Mj7NcqfJF4TaLQdSg2ZQ-90" value="내용" style="ellipse;whiteSpace=wrap;html=1;" vertex="1" parent="1">
          <mxGeometry x="-820" y="200" width="70" height="30" as="geometry" />
        </mxCell>
        <mxCell id="Mj7NcqfJF4TaLQdSg2ZQ-91" value="보낸날자" style="ellipse;whiteSpace=wrap;html=1;" vertex="1" parent="1">
          <mxGeometry x="-737" y="200" width="70" height="30" as="geometry" />
        </mxCell>
        <mxCell id="Mj7NcqfJF4TaLQdSg2ZQ-92" value="&lt;u&gt;알람ID&lt;/u&gt;" style="ellipse;whiteSpace=wrap;html=1;" vertex="1" parent="1">
          <mxGeometry x="-670" y="265" width="70" height="30" as="geometry" />
        </mxCell>
        <mxCell id="Mj7NcqfJF4TaLQdSg2ZQ-93" value="" style="endArrow=none;html=1;rounded=0;" edge="1" parent="1" source="Mj7NcqfJF4TaLQdSg2ZQ-92" target="Mj7NcqfJF4TaLQdSg2ZQ-89">
          <mxGeometry relative="1" as="geometry">
            <mxPoint x="-910" y="65" as="sourcePoint" />
            <mxPoint x="-750" y="65" as="targetPoint" />
          </mxGeometry>
        </mxCell>
        <mxCell id="Mj7NcqfJF4TaLQdSg2ZQ-94" value="" style="endArrow=none;html=1;rounded=0;" edge="1" parent="1" source="Mj7NcqfJF4TaLQdSg2ZQ-91" target="Mj7NcqfJF4TaLQdSg2ZQ-89">
          <mxGeometry relative="1" as="geometry">
            <mxPoint x="-910" y="65" as="sourcePoint" />
            <mxPoint x="-980" y="265" as="targetPoint" />
          </mxGeometry>
        </mxCell>
        <mxCell id="Mj7NcqfJF4TaLQdSg2ZQ-95" value="" style="endArrow=none;html=1;rounded=0;" edge="1" parent="1" source="Mj7NcqfJF4TaLQdSg2ZQ-90" target="Mj7NcqfJF4TaLQdSg2ZQ-89">
          <mxGeometry relative="1" as="geometry">
            <mxPoint x="-910" y="65" as="sourcePoint" />
            <mxPoint x="-750" y="65" as="targetPoint" />
          </mxGeometry>
        </mxCell>
        <mxCell id="Mj7NcqfJF4TaLQdSg2ZQ-96" value="&lt;u&gt;경로ID&lt;/u&gt;" style="ellipse;whiteSpace=wrap;html=1;container=0;" vertex="1" parent="1">
          <mxGeometry x="130" y="379.99999999999994" width="70" height="30" as="geometry" />
        </mxCell>
        <mxCell id="Mj7NcqfJF4TaLQdSg2ZQ-97" value="경로 정보" style="ellipse;whiteSpace=wrap;html=1;container=0;" vertex="1" parent="1">
          <mxGeometry x="70" y="349.99999999999994" width="70" height="30" as="geometry" />
        </mxCell>
        <mxCell id="Mj7NcqfJF4TaLQdSg2ZQ-98" value="" style="endArrow=none;html=1;rounded=0;" edge="1" parent="1" source="Mj7NcqfJF4TaLQdSg2ZQ-96" target="Mj7NcqfJF4TaLQdSg2ZQ-135">
          <mxGeometry width="50" height="50" relative="1" as="geometry">
            <mxPoint x="90" y="344.17" as="sourcePoint" />
            <mxPoint x="120" y="403.2157142857145" as="targetPoint" />
          </mxGeometry>
        </mxCell>
        <mxCell id="Mj7NcqfJF4TaLQdSg2ZQ-99" value="" style="endArrow=none;html=1;rounded=0;" edge="1" parent="1" source="Mj7NcqfJF4TaLQdSg2ZQ-97" target="Mj7NcqfJF4TaLQdSg2ZQ-135">
          <mxGeometry width="50" height="50" relative="1" as="geometry">
            <mxPoint x="90" y="344.17" as="sourcePoint" />
            <mxPoint x="87.45576571079937" y="384.1700000000001" as="targetPoint" />
          </mxGeometry>
        </mxCell>
        <mxCell id="Mj7NcqfJF4TaLQdSg2ZQ-100" value="" style="endArrow=none;html=1;rounded=0;" edge="1" parent="1" source="Mj7NcqfJF4TaLQdSg2ZQ-102" target="Mj7NcqfJF4TaLQdSg2ZQ-135">
          <mxGeometry relative="1" as="geometry">
            <mxPoint x="-40" y="414.16999999999996" as="sourcePoint" />
            <mxPoint y="403.2157142857145" as="targetPoint" />
          </mxGeometry>
        </mxCell>
        <mxCell id="Mj7NcqfJF4TaLQdSg2ZQ-101" value="&lt;font style=&quot;font-size: 26px;&quot;&gt;ERD 개념도&lt;/font&gt;" style="text;html=1;align=center;verticalAlign=middle;resizable=0;points=[];autosize=1;strokeColor=none;fillColor=none;" vertex="1" parent="1">
          <mxGeometry x="-1295" y="-460" width="160" height="40" as="geometry" />
        </mxCell>
        <mxCell id="Mj7NcqfJF4TaLQdSg2ZQ-102" value="평가결과" style="ellipse;whiteSpace=wrap;html=1;container=0;" vertex="1" parent="1">
          <mxGeometry x="-80" y="379.99999999999994" width="70" height="30" as="geometry" />
        </mxCell>
        <mxCell id="Mj7NcqfJF4TaLQdSg2ZQ-103" value="&lt;font style=&quot;font-size: 26px;&quot;&gt;팀 리프래시 식스센스&lt;/font&gt;" style="text;html=1;align=center;verticalAlign=middle;resizable=0;points=[];autosize=1;strokeColor=none;fillColor=none;" vertex="1" parent="1">
          <mxGeometry x="590" y="1030" width="270" height="40" as="geometry" />
        </mxCell>
        <mxCell id="Mj7NcqfJF4TaLQdSg2ZQ-104" value="" style="endArrow=none;html=1;rounded=0;" edge="1" parent="1" target="Mj7NcqfJF4TaLQdSg2ZQ-10">
          <mxGeometry relative="1" as="geometry">
            <mxPoint x="580" y="140" as="sourcePoint" />
            <mxPoint x="220" y="440" as="targetPoint" />
            <Array as="points">
              <mxPoint x="580" y="240" />
              <mxPoint x="760" y="240" />
              <mxPoint x="760" y="600" />
            </Array>
          </mxGeometry>
        </mxCell>
        <mxCell id="Mj7NcqfJF4TaLQdSg2ZQ-105" value="1" style="resizable=0;html=1;whiteSpace=wrap;align=right;verticalAlign=bottom;" connectable="0" vertex="1" parent="Mj7NcqfJF4TaLQdSg2ZQ-104">
          <mxGeometry x="1" relative="1" as="geometry" />
        </mxCell>
        <mxCell id="Mj7NcqfJF4TaLQdSg2ZQ-106" value="" style="endArrow=none;html=1;rounded=0;" edge="1" parent="1" source="Mj7NcqfJF4TaLQdSg2ZQ-33" target="Mj7NcqfJF4TaLQdSg2ZQ-109">
          <mxGeometry relative="1" as="geometry">
            <mxPoint x="630" y="150" as="sourcePoint" />
            <mxPoint x="658.9024203041736" y="172.75871390576185" as="targetPoint" />
          </mxGeometry>
        </mxCell>
        <mxCell id="Mj7NcqfJF4TaLQdSg2ZQ-107" value="카테고리 세부 사항" style="ellipse;whiteSpace=wrap;html=1;container=0;" vertex="1" parent="1">
          <mxGeometry x="730" y="170" width="80" height="40" as="geometry" />
        </mxCell>
        <mxCell id="Mj7NcqfJF4TaLQdSg2ZQ-108" value="" style="endArrow=none;html=1;rounded=0;" edge="1" parent="1" source="Mj7NcqfJF4TaLQdSg2ZQ-109" target="Mj7NcqfJF4TaLQdSg2ZQ-107">
          <mxGeometry relative="1" as="geometry">
            <mxPoint x="714.1300000000006" y="185" as="sourcePoint" />
            <mxPoint x="800" y="140" as="targetPoint" />
          </mxGeometry>
        </mxCell>
        <mxCell id="Mj7NcqfJF4TaLQdSg2ZQ-109" value="카테고리 번호" style="ellipse;shape=doubleEllipse;margin=3;whiteSpace=wrap;html=1;align=center;" vertex="1" parent="1">
          <mxGeometry x="646.19" y="170" width="63.81" height="40" as="geometry" />
        </mxCell>
        <mxCell id="Mj7NcqfJF4TaLQdSg2ZQ-110" value="" style="shape=link;html=1;rounded=0;" edge="1" parent="1" source="Mj7NcqfJF4TaLQdSg2ZQ-17" target="Mj7NcqfJF4TaLQdSg2ZQ-23">
          <mxGeometry relative="1" as="geometry">
            <mxPoint x="40" y="-10" as="sourcePoint" />
            <mxPoint x="200" y="-10" as="targetPoint" />
          </mxGeometry>
        </mxCell>
        <mxCell id="Mj7NcqfJF4TaLQdSg2ZQ-111" value="N" style="resizable=0;html=1;whiteSpace=wrap;align=right;verticalAlign=bottom;" connectable="0" vertex="1" parent="Mj7NcqfJF4TaLQdSg2ZQ-110">
          <mxGeometry x="1" relative="1" as="geometry">
            <mxPoint x="10" y="-10" as="offset" />
          </mxGeometry>
        </mxCell>
        <mxCell id="Mj7NcqfJF4TaLQdSg2ZQ-112" value="" style="shape=link;html=1;rounded=0;" edge="1" parent="1" source="Mj7NcqfJF4TaLQdSg2ZQ-33" target="Mj7NcqfJF4TaLQdSg2ZQ-9">
          <mxGeometry relative="1" as="geometry">
            <mxPoint x="40" y="-10" as="sourcePoint" />
            <mxPoint x="200" y="-10" as="targetPoint" />
          </mxGeometry>
        </mxCell>
        <mxCell id="Mj7NcqfJF4TaLQdSg2ZQ-113" value="N" style="resizable=0;html=1;whiteSpace=wrap;align=right;verticalAlign=bottom;" connectable="0" vertex="1" parent="Mj7NcqfJF4TaLQdSg2ZQ-112">
          <mxGeometry x="1" relative="1" as="geometry">
            <mxPoint x="10" as="offset" />
          </mxGeometry>
        </mxCell>
        <mxCell id="Mj7NcqfJF4TaLQdSg2ZQ-114" value="" style="shape=link;html=1;rounded=0;" edge="1" parent="1" source="Mj7NcqfJF4TaLQdSg2ZQ-60" target="Mj7NcqfJF4TaLQdSg2ZQ-69">
          <mxGeometry relative="1" as="geometry">
            <mxPoint x="40" y="-10" as="sourcePoint" />
            <mxPoint x="200" y="-10" as="targetPoint" />
          </mxGeometry>
        </mxCell>
        <mxCell id="Mj7NcqfJF4TaLQdSg2ZQ-115" value="N" style="resizable=0;html=1;whiteSpace=wrap;align=right;verticalAlign=bottom;" connectable="0" vertex="1" parent="Mj7NcqfJF4TaLQdSg2ZQ-114">
          <mxGeometry x="1" relative="1" as="geometry">
            <mxPoint x="29" y="9" as="offset" />
          </mxGeometry>
        </mxCell>
        <mxCell id="Mj7NcqfJF4TaLQdSg2ZQ-116" value="" style="endArrow=none;html=1;rounded=0;" edge="1" parent="1" source="Mj7NcqfJF4TaLQdSg2ZQ-44" target="Mj7NcqfJF4TaLQdSg2ZQ-23">
          <mxGeometry relative="1" as="geometry">
            <mxPoint x="10" y="30" as="sourcePoint" />
            <mxPoint x="170" y="30" as="targetPoint" />
          </mxGeometry>
        </mxCell>
        <mxCell id="Mj7NcqfJF4TaLQdSg2ZQ-117" value="1" style="resizable=0;html=1;whiteSpace=wrap;align=right;verticalAlign=bottom;" connectable="0" vertex="1" parent="Mj7NcqfJF4TaLQdSg2ZQ-116">
          <mxGeometry x="1" relative="1" as="geometry">
            <mxPoint x="-20" y="10" as="offset" />
          </mxGeometry>
        </mxCell>
        <mxCell id="Mj7NcqfJF4TaLQdSg2ZQ-118" value="" style="endArrow=none;html=1;rounded=0;" edge="1" parent="1" source="Mj7NcqfJF4TaLQdSg2ZQ-44" target="Mj7NcqfJF4TaLQdSg2ZQ-9">
          <mxGeometry relative="1" as="geometry">
            <mxPoint x="10" y="40" as="sourcePoint" />
            <mxPoint x="170" y="40" as="targetPoint" />
          </mxGeometry>
        </mxCell>
        <mxCell id="Mj7NcqfJF4TaLQdSg2ZQ-119" value="1" style="resizable=0;html=1;whiteSpace=wrap;align=right;verticalAlign=bottom;" connectable="0" vertex="1" parent="Mj7NcqfJF4TaLQdSg2ZQ-118">
          <mxGeometry x="1" relative="1" as="geometry" />
        </mxCell>
        <mxCell id="Mj7NcqfJF4TaLQdSg2ZQ-120" value="" style="endArrow=none;html=1;rounded=0;" edge="1" parent="1" source="Mj7NcqfJF4TaLQdSg2ZQ-44" target="Mj7NcqfJF4TaLQdSg2ZQ-69">
          <mxGeometry relative="1" as="geometry">
            <mxPoint y="160" as="sourcePoint" />
            <mxPoint x="160" y="160" as="targetPoint" />
          </mxGeometry>
        </mxCell>
        <mxCell id="Mj7NcqfJF4TaLQdSg2ZQ-121" value="1" style="resizable=0;html=1;whiteSpace=wrap;align=right;verticalAlign=bottom;" connectable="0" vertex="1" parent="Mj7NcqfJF4TaLQdSg2ZQ-120">
          <mxGeometry x="1" relative="1" as="geometry" />
        </mxCell>
        <mxCell id="Mj7NcqfJF4TaLQdSg2ZQ-122" value="" style="shape=link;html=1;rounded=0;" edge="1" parent="1" source="Mj7NcqfJF4TaLQdSg2ZQ-75" target="Mj7NcqfJF4TaLQdSg2ZQ-82">
          <mxGeometry relative="1" as="geometry">
            <mxPoint x="-320" y="110" as="sourcePoint" />
            <mxPoint x="-160" y="110" as="targetPoint" />
          </mxGeometry>
        </mxCell>
        <mxCell id="Mj7NcqfJF4TaLQdSg2ZQ-123" value="N" style="resizable=0;html=1;whiteSpace=wrap;align=right;verticalAlign=bottom;" connectable="0" vertex="1" parent="Mj7NcqfJF4TaLQdSg2ZQ-122">
          <mxGeometry x="1" relative="1" as="geometry" />
        </mxCell>
        <mxCell id="Mj7NcqfJF4TaLQdSg2ZQ-124" value="" style="endArrow=none;html=1;rounded=0;" edge="1" parent="1" source="Mj7NcqfJF4TaLQdSg2ZQ-44" target="Mj7NcqfJF4TaLQdSg2ZQ-82">
          <mxGeometry relative="1" as="geometry">
            <mxPoint x="-330" y="120" as="sourcePoint" />
            <mxPoint x="-170" y="120" as="targetPoint" />
          </mxGeometry>
        </mxCell>
        <mxCell id="Mj7NcqfJF4TaLQdSg2ZQ-125" value="1" style="resizable=0;html=1;whiteSpace=wrap;align=right;verticalAlign=bottom;" connectable="0" vertex="1" parent="Mj7NcqfJF4TaLQdSg2ZQ-124">
          <mxGeometry x="1" relative="1" as="geometry">
            <mxPoint x="8" y="1" as="offset" />
          </mxGeometry>
        </mxCell>
        <mxCell id="Mj7NcqfJF4TaLQdSg2ZQ-126" value="" style="endArrow=none;html=1;rounded=0;" edge="1" parent="1" source="Mj7NcqfJF4TaLQdSg2ZQ-44" target="Mj7NcqfJF4TaLQdSg2ZQ-86">
          <mxGeometry relative="1" as="geometry">
            <mxPoint x="-530" y="160" as="sourcePoint" />
            <mxPoint x="-370" y="160" as="targetPoint" />
          </mxGeometry>
        </mxCell>
        <mxCell id="Mj7NcqfJF4TaLQdSg2ZQ-127" value="1" style="resizable=0;html=1;whiteSpace=wrap;align=right;verticalAlign=bottom;" connectable="0" vertex="1" parent="Mj7NcqfJF4TaLQdSg2ZQ-126">
          <mxGeometry x="1" relative="1" as="geometry">
            <mxPoint x="6" y="-2" as="offset" />
          </mxGeometry>
        </mxCell>
        <mxCell id="Mj7NcqfJF4TaLQdSg2ZQ-128" value="" style="shape=link;html=1;rounded=0;" edge="1" parent="1" source="Mj7NcqfJF4TaLQdSg2ZQ-89" target="Mj7NcqfJF4TaLQdSg2ZQ-86">
          <mxGeometry relative="1" as="geometry">
            <mxPoint x="-630" y="260" as="sourcePoint" />
            <mxPoint x="-470" y="260" as="targetPoint" />
          </mxGeometry>
        </mxCell>
        <mxCell id="Mj7NcqfJF4TaLQdSg2ZQ-129" value="N" style="resizable=0;html=1;whiteSpace=wrap;align=right;verticalAlign=bottom;" connectable="0" vertex="1" parent="Mj7NcqfJF4TaLQdSg2ZQ-128">
          <mxGeometry x="1" relative="1" as="geometry">
            <mxPoint x="-25" y="4" as="offset" />
          </mxGeometry>
        </mxCell>
        <mxCell id="Mj7NcqfJF4TaLQdSg2ZQ-130" value="위험 종류" style="rounded=0;whiteSpace=wrap;html=1;" vertex="1" parent="1">
          <mxGeometry x="-1159.08" y="450" width="120" height="60" as="geometry" />
        </mxCell>
        <mxCell id="Mj7NcqfJF4TaLQdSg2ZQ-131" value="&lt;u&gt;위험ID&lt;/u&gt;" style="ellipse;whiteSpace=wrap;html=1;" vertex="1" parent="1">
          <mxGeometry x="-1240" y="465" width="70" height="30" as="geometry" />
        </mxCell>
        <mxCell id="Mj7NcqfJF4TaLQdSg2ZQ-132" value="상세내용" style="ellipse;whiteSpace=wrap;html=1;" vertex="1" parent="1">
          <mxGeometry x="-1229.0800000000002" y="510" width="70" height="30" as="geometry" />
        </mxCell>
        <mxCell id="Mj7NcqfJF4TaLQdSg2ZQ-133" value="" style="endArrow=none;html=1;rounded=0;" edge="1" parent="1" source="Mj7NcqfJF4TaLQdSg2ZQ-131" target="Mj7NcqfJF4TaLQdSg2ZQ-130">
          <mxGeometry relative="1" as="geometry">
            <mxPoint x="-933.7700000000001" y="435" as="sourcePoint" />
            <mxPoint x="-773.7700000000001" y="435" as="targetPoint" />
          </mxGeometry>
        </mxCell>
        <mxCell id="Mj7NcqfJF4TaLQdSg2ZQ-134" value="" style="endArrow=none;html=1;rounded=0;" edge="1" parent="1" source="Mj7NcqfJF4TaLQdSg2ZQ-132" target="Mj7NcqfJF4TaLQdSg2ZQ-130">
          <mxGeometry relative="1" as="geometry">
            <mxPoint x="-933.7700000000001" y="435" as="sourcePoint" />
            <mxPoint x="-773.7700000000001" y="435" as="targetPoint" />
          </mxGeometry>
        </mxCell>
        <mxCell id="Mj7NcqfJF4TaLQdSg2ZQ-135" value="자신 경로" style="rounded=0;whiteSpace=wrap;html=1;" vertex="1" parent="1">
          <mxGeometry y="384.17" width="120" height="60" as="geometry" />
        </mxCell>
        <mxCell id="Mj7NcqfJF4TaLQdSg2ZQ-136" value="저장 하다" style="shape=rhombus;perimeter=rhombusPerimeter;whiteSpace=wrap;html=1;align=center;" vertex="1" parent="1">
          <mxGeometry y="240" width="120" height="60" as="geometry" />
        </mxCell>
        <mxCell id="Mj7NcqfJF4TaLQdSg2ZQ-137" value="기록일" style="ellipse;whiteSpace=wrap;html=1;" vertex="1" parent="1">
          <mxGeometry x="-350" y="350" width="70" height="30" as="geometry" />
        </mxCell>
        <mxCell id="Mj7NcqfJF4TaLQdSg2ZQ-138" value="" style="endArrow=none;html=1;rounded=0;" edge="1" parent="1" source="Mj7NcqfJF4TaLQdSg2ZQ-144" target="Mj7NcqfJF4TaLQdSg2ZQ-137">
          <mxGeometry relative="1" as="geometry">
            <mxPoint x="-298.5561836620393" y="388.3400000000001" as="sourcePoint" />
            <mxPoint x="-105" y="374.34000000000003" as="targetPoint" />
          </mxGeometry>
        </mxCell>
        <mxCell id="Mj7NcqfJF4TaLQdSg2ZQ-139" value="경로 정보" style="ellipse;whiteSpace=wrap;html=1;container=0;" vertex="1" parent="1">
          <mxGeometry x="-253" y="349.99999999999994" width="70" height="30" as="geometry" />
        </mxCell>
        <mxCell id="Mj7NcqfJF4TaLQdSg2ZQ-140" value="" style="endArrow=none;html=1;rounded=0;" edge="1" parent="1" source="Mj7NcqfJF4TaLQdSg2ZQ-146" target="Mj7NcqfJF4TaLQdSg2ZQ-144">
          <mxGeometry width="50" height="50" relative="1" as="geometry">
            <mxPoint x="-235" y="348.34000000000003" as="sourcePoint" />
            <mxPoint x="-205" y="407.3857142857145" as="targetPoint" />
          </mxGeometry>
        </mxCell>
        <mxCell id="Mj7NcqfJF4TaLQdSg2ZQ-141" value="" style="endArrow=none;html=1;rounded=0;" edge="1" parent="1" source="Mj7NcqfJF4TaLQdSg2ZQ-139" target="Mj7NcqfJF4TaLQdSg2ZQ-144">
          <mxGeometry width="50" height="50" relative="1" as="geometry">
            <mxPoint x="-235" y="348.34000000000003" as="sourcePoint" />
            <mxPoint x="-237.54423428920063" y="388.3400000000001" as="targetPoint" />
          </mxGeometry>
        </mxCell>
        <mxCell id="Mj7NcqfJF4TaLQdSg2ZQ-142" value="" style="endArrow=none;html=1;rounded=0;" edge="1" parent="1" source="Mj7NcqfJF4TaLQdSg2ZQ-143" target="Mj7NcqfJF4TaLQdSg2ZQ-144">
          <mxGeometry relative="1" as="geometry">
            <mxPoint x="-365" y="418.34" as="sourcePoint" />
            <mxPoint x="-325" y="407.3857142857145" as="targetPoint" />
          </mxGeometry>
        </mxCell>
        <mxCell id="Mj7NcqfJF4TaLQdSg2ZQ-143" value="평가결과" style="ellipse;whiteSpace=wrap;html=1;container=0;" vertex="1" parent="1">
          <mxGeometry x="-405" y="384.16999999999996" width="70" height="30" as="geometry" />
        </mxCell>
        <mxCell id="Mj7NcqfJF4TaLQdSg2ZQ-144" value="즐겨찾기 경로" style="rounded=0;whiteSpace=wrap;html=1;" vertex="1" parent="1">
          <mxGeometry x="-325" y="385.34000000000003" width="120" height="60" as="geometry" />
        </mxCell>
        <mxCell id="Mj7NcqfJF4TaLQdSg2ZQ-145" value="저장 하다" style="shape=rhombus;perimeter=rhombusPerimeter;whiteSpace=wrap;html=1;align=center;" vertex="1" parent="1">
          <mxGeometry x="-325" y="250" width="120" height="60" as="geometry" />
        </mxCell>
        <mxCell id="Mj7NcqfJF4TaLQdSg2ZQ-146" value="&lt;u&gt;경로ID&lt;/u&gt;" style="ellipse;whiteSpace=wrap;html=1;container=0;" vertex="1" parent="1">
          <mxGeometry x="-190" y="379.99999999999994" width="70" height="30" as="geometry" />
        </mxCell>
        <mxCell id="Mj7NcqfJF4TaLQdSg2ZQ-147" value="" style="endArrow=none;html=1;rounded=0;" edge="1" parent="1" source="Mj7NcqfJF4TaLQdSg2ZQ-44" target="Mj7NcqfJF4TaLQdSg2ZQ-145">
          <mxGeometry relative="1" as="geometry">
            <mxPoint x="-215" y="150" as="sourcePoint" />
            <mxPoint x="-105" y="260" as="targetPoint" />
          </mxGeometry>
        </mxCell>
        <mxCell id="Mj7NcqfJF4TaLQdSg2ZQ-148" value="1" style="resizable=0;html=1;whiteSpace=wrap;align=right;verticalAlign=bottom;" connectable="0" vertex="1" parent="Mj7NcqfJF4TaLQdSg2ZQ-147">
          <mxGeometry x="1" relative="1" as="geometry">
            <mxPoint x="5" y="-9" as="offset" />
          </mxGeometry>
        </mxCell>
        <mxCell id="Mj7NcqfJF4TaLQdSg2ZQ-149" value="참조하다" style="shape=rhombus;perimeter=rhombusPerimeter;whiteSpace=wrap;html=1;align=center;" vertex="1" parent="1">
          <mxGeometry x="-980" y="245" width="120" height="60" as="geometry" />
        </mxCell>
        <mxCell id="Mj7NcqfJF4TaLQdSg2ZQ-150" value="" style="shape=link;html=1;rounded=0;" edge="1" parent="1" source="Mj7NcqfJF4TaLQdSg2ZQ-53" target="Mj7NcqfJF4TaLQdSg2ZQ-149">
          <mxGeometry relative="1" as="geometry">
            <mxPoint x="-980" y="210" as="sourcePoint" />
            <mxPoint x="-700" y="230" as="targetPoint" />
          </mxGeometry>
        </mxCell>
        <mxCell id="Mj7NcqfJF4TaLQdSg2ZQ-151" value="1" style="resizable=0;html=1;whiteSpace=wrap;align=right;verticalAlign=bottom;" connectable="0" vertex="1" parent="Mj7NcqfJF4TaLQdSg2ZQ-150">
          <mxGeometry x="1" relative="1" as="geometry" />
        </mxCell>
        <mxCell id="Mj7NcqfJF4TaLQdSg2ZQ-152" value="" style="endArrow=none;html=1;rounded=0;" edge="1" parent="1" source="Mj7NcqfJF4TaLQdSg2ZQ-89" target="Mj7NcqfJF4TaLQdSg2ZQ-149">
          <mxGeometry relative="1" as="geometry">
            <mxPoint x="-840" y="210" as="sourcePoint" />
            <mxPoint x="-890" y="160" as="targetPoint" />
          </mxGeometry>
        </mxCell>
        <mxCell id="Mj7NcqfJF4TaLQdSg2ZQ-153" value="N" style="resizable=0;html=1;whiteSpace=wrap;align=right;verticalAlign=bottom;" connectable="0" vertex="1" parent="Mj7NcqfJF4TaLQdSg2ZQ-152">
          <mxGeometry x="1" relative="1" as="geometry">
            <mxPoint x="6" as="offset" />
          </mxGeometry>
        </mxCell>
        <mxCell id="Mj7NcqfJF4TaLQdSg2ZQ-154" value="참조하다" style="shape=rhombus;perimeter=rhombusPerimeter;whiteSpace=wrap;html=1;align=center;" vertex="1" parent="1">
          <mxGeometry x="280.00000000000006" y="650" width="120" height="60" as="geometry" />
        </mxCell>
        <mxCell id="Mj7NcqfJF4TaLQdSg2ZQ-155" value="" style="endArrow=none;html=1;rounded=0;exitX=0.462;exitY=1.01;exitDx=0;exitDy=0;exitPerimeter=0;" edge="1" parent="1" source="Mj7NcqfJF4TaLQdSg2ZQ-144" target="Mj7NcqfJF4TaLQdSg2ZQ-154">
          <mxGeometry relative="1" as="geometry">
            <mxPoint x="-269" y="534" as="sourcePoint" />
            <mxPoint x="150" y="690" as="targetPoint" />
            <Array as="points">
              <mxPoint x="-269" y="680" />
            </Array>
          </mxGeometry>
        </mxCell>
        <mxCell id="Mj7NcqfJF4TaLQdSg2ZQ-156" value="1" style="resizable=0;html=1;whiteSpace=wrap;align=right;verticalAlign=bottom;" connectable="0" vertex="1" parent="Mj7NcqfJF4TaLQdSg2ZQ-155">
          <mxGeometry x="1" relative="1" as="geometry">
            <mxPoint as="offset" />
          </mxGeometry>
        </mxCell>
        <mxCell id="Mj7NcqfJF4TaLQdSg2ZQ-157" value="" style="endArrow=none;html=1;rounded=0;" edge="1" parent="1">
          <mxGeometry relative="1" as="geometry">
            <mxPoint x="600" y="140" as="sourcePoint" />
            <mxPoint x="400" y="680" as="targetPoint" />
            <Array as="points">
              <mxPoint x="600" y="220" />
              <mxPoint x="800" y="220" />
              <mxPoint x="800" y="680" />
            </Array>
          </mxGeometry>
        </mxCell>
        <mxCell id="Mj7NcqfJF4TaLQdSg2ZQ-158" value="1" style="resizable=0;html=1;whiteSpace=wrap;align=right;verticalAlign=bottom;" connectable="0" vertex="1" parent="Mj7NcqfJF4TaLQdSg2ZQ-157">
          <mxGeometry x="1" relative="1" as="geometry" />
        </mxCell>
        <mxCell id="Mj7NcqfJF4TaLQdSg2ZQ-159" value="장소 리뷰" style="rounded=0;whiteSpace=wrap;html=1;" vertex="1" parent="1">
          <mxGeometry x="-650" y="380" width="120" height="60" as="geometry" />
        </mxCell>
        <mxCell id="Mj7NcqfJF4TaLQdSg2ZQ-160" value="작성하다" style="shape=rhombus;perimeter=rhombusPerimeter;whiteSpace=wrap;html=1;align=center;" vertex="1" parent="1">
          <mxGeometry x="-500" y="259.17" width="120" height="60" as="geometry" />
        </mxCell>
        <mxCell id="Mj7NcqfJF4TaLQdSg2ZQ-161" value="" style="endArrow=none;html=1;rounded=0;" edge="1" parent="1" source="Mj7NcqfJF4TaLQdSg2ZQ-44" target="Mj7NcqfJF4TaLQdSg2ZQ-160">
          <mxGeometry relative="1" as="geometry">
            <mxPoint x="-160" y="147.16" as="sourcePoint" />
            <mxPoint x="-390" y="147.16" as="targetPoint" />
          </mxGeometry>
        </mxCell>
        <mxCell id="Mj7NcqfJF4TaLQdSg2ZQ-162" value="1" style="resizable=0;html=1;whiteSpace=wrap;align=right;verticalAlign=bottom;" connectable="0" vertex="1" parent="Mj7NcqfJF4TaLQdSg2ZQ-161">
          <mxGeometry x="1" relative="1" as="geometry">
            <mxPoint x="7" y="-1" as="offset" />
          </mxGeometry>
        </mxCell>
        <mxCell id="Mj7NcqfJF4TaLQdSg2ZQ-163" value="" style="shape=link;html=1;rounded=0;" edge="1" parent="1" source="Mj7NcqfJF4TaLQdSg2ZQ-159" target="Mj7NcqfJF4TaLQdSg2ZQ-160">
          <mxGeometry relative="1" as="geometry">
            <mxPoint x="-1010.87" y="-149.44" as="sourcePoint" />
            <mxPoint x="-840.87" y="-149.44" as="targetPoint" />
          </mxGeometry>
        </mxCell>
        <mxCell id="Mj7NcqfJF4TaLQdSg2ZQ-164" value="N" style="resizable=0;html=1;whiteSpace=wrap;align=right;verticalAlign=bottom;" connectable="0" vertex="1" parent="Mj7NcqfJF4TaLQdSg2ZQ-163">
          <mxGeometry x="1" relative="1" as="geometry">
            <mxPoint x="-22" y="5" as="offset" />
          </mxGeometry>
        </mxCell>
        <mxCell id="Mj7NcqfJF4TaLQdSg2ZQ-165" value="&lt;u&gt;리뷰ID&lt;/u&gt;" style="ellipse;whiteSpace=wrap;html=1;" vertex="1" parent="1">
          <mxGeometry x="-735" y="421" width="70" height="30" as="geometry" />
        </mxCell>
        <mxCell id="Mj7NcqfJF4TaLQdSg2ZQ-166" value="리뷰 내용" style="ellipse;whiteSpace=wrap;html=1;" vertex="1" parent="1">
          <mxGeometry x="-725" y="380" width="70" height="30" as="geometry" />
        </mxCell>
        <mxCell id="Mj7NcqfJF4TaLQdSg2ZQ-167" value="작성시간" style="ellipse;whiteSpace=wrap;html=1;" vertex="1" parent="1">
          <mxGeometry x="-705" y="460.00000000000006" width="70" height="30" as="geometry" />
        </mxCell>
        <mxCell id="Mj7NcqfJF4TaLQdSg2ZQ-168" value="" style="endArrow=none;html=1;rounded=0;" edge="1" parent="1" source="Mj7NcqfJF4TaLQdSg2ZQ-166" target="Mj7NcqfJF4TaLQdSg2ZQ-159">
          <mxGeometry relative="1" as="geometry">
            <mxPoint x="-820.87" y="448.75" as="sourcePoint" />
            <mxPoint x="-660.87" y="448.75" as="targetPoint" />
          </mxGeometry>
        </mxCell>
        <mxCell id="Mj7NcqfJF4TaLQdSg2ZQ-169" value="" style="endArrow=none;html=1;rounded=0;" edge="1" parent="1" source="Mj7NcqfJF4TaLQdSg2ZQ-165" target="Mj7NcqfJF4TaLQdSg2ZQ-159">
          <mxGeometry relative="1" as="geometry">
            <mxPoint x="-820.87" y="448.75" as="sourcePoint" />
            <mxPoint x="-660.87" y="448.75" as="targetPoint" />
          </mxGeometry>
        </mxCell>
        <mxCell id="Mj7NcqfJF4TaLQdSg2ZQ-170" value="" style="endArrow=none;html=1;rounded=0;" edge="1" parent="1" source="Mj7NcqfJF4TaLQdSg2ZQ-167" target="Mj7NcqfJF4TaLQdSg2ZQ-159">
          <mxGeometry relative="1" as="geometry">
            <mxPoint x="-820.87" y="448.75" as="sourcePoint" />
            <mxPoint x="-660.87" y="448.75" as="targetPoint" />
          </mxGeometry>
        </mxCell>
        <mxCell id="Mj7NcqfJF4TaLQdSg2ZQ-171" value="대처방법" style="ellipse;whiteSpace=wrap;html=1;" vertex="1" parent="1">
          <mxGeometry x="-1135" y="520" width="70" height="30" as="geometry" />
        </mxCell>
        <mxCell id="Mj7NcqfJF4TaLQdSg2ZQ-172" value="" style="endArrow=none;html=1;rounded=0;" edge="1" parent="1" source="Mj7NcqfJF4TaLQdSg2ZQ-171" target="Mj7NcqfJF4TaLQdSg2ZQ-130">
          <mxGeometry relative="1" as="geometry">
            <mxPoint x="-672.0805519258168" y="518.8109350756081" as="sourcePoint" />
            <mxPoint x="-766.87" y="534.96" as="targetPoint" />
          </mxGeometry>
        </mxCell>
        <mxCell id="Mj7NcqfJF4TaLQdSg2ZQ-173" value="참조하다" style="shape=rhombus;perimeter=rhombusPerimeter;whiteSpace=wrap;html=1;align=center;" vertex="1" parent="1">
          <mxGeometry x="-1160" y="350" width="120" height="60" as="geometry" />
        </mxCell>
        <mxCell id="Mj7NcqfJF4TaLQdSg2ZQ-174" value="" style="endArrow=none;html=1;rounded=0;" edge="1" parent="1" source="Mj7NcqfJF4TaLQdSg2ZQ-130" target="Mj7NcqfJF4TaLQdSg2ZQ-173">
          <mxGeometry relative="1" as="geometry">
            <mxPoint x="-834.73" y="363.98" as="sourcePoint" />
            <mxPoint x="-895.73" y="364.98" as="targetPoint" />
          </mxGeometry>
        </mxCell>
        <mxCell id="Mj7NcqfJF4TaLQdSg2ZQ-175" value="N" style="resizable=0;html=1;whiteSpace=wrap;align=right;verticalAlign=bottom;" connectable="0" vertex="1" parent="Mj7NcqfJF4TaLQdSg2ZQ-174">
          <mxGeometry x="1" relative="1" as="geometry">
            <mxPoint x="21" y="15" as="offset" />
          </mxGeometry>
        </mxCell>
        <mxCell id="Mj7NcqfJF4TaLQdSg2ZQ-176" value="" style="shape=link;html=1;rounded=0;" edge="1" parent="1" source="Mj7NcqfJF4TaLQdSg2ZQ-53" target="Mj7NcqfJF4TaLQdSg2ZQ-173">
          <mxGeometry relative="1" as="geometry">
            <mxPoint x="-1060" y="370" as="sourcePoint" />
            <mxPoint x="-1000" y="370" as="targetPoint" />
          </mxGeometry>
        </mxCell>
        <mxCell id="Mj7NcqfJF4TaLQdSg2ZQ-177" value="1" style="resizable=0;html=1;whiteSpace=wrap;align=right;verticalAlign=bottom;" connectable="0" vertex="1" parent="Mj7NcqfJF4TaLQdSg2ZQ-176">
          <mxGeometry x="1" relative="1" as="geometry">
            <mxPoint x="20" as="offset" />
          </mxGeometry>
        </mxCell>
        <mxCell id="Mj7NcqfJF4TaLQdSg2ZQ-178" value="글 종류" style="ellipse;whiteSpace=wrap;html=1;container=0;" vertex="1" parent="1">
          <mxGeometry x="478.48" y="150" width="70" height="30" as="geometry" />
        </mxCell>
        <mxCell id="Mj7NcqfJF4TaLQdSg2ZQ-179" value="" style="endArrow=none;html=1;rounded=0;" edge="1" parent="1" source="Mj7NcqfJF4TaLQdSg2ZQ-178" target="Mj7NcqfJF4TaLQdSg2ZQ-33">
          <mxGeometry relative="1" as="geometry">
            <mxPoint x="615.56" y="48.38" as="sourcePoint" />
            <mxPoint x="561.56" y="81.38" as="targetPoint" />
          </mxGeometry>
        </mxCell>
        <mxCell id="Mj7NcqfJF4TaLQdSg2ZQ-180" value="좋아요 수" style="ellipse;whiteSpace=wrap;html=1;container=0;" vertex="1" parent="1">
          <mxGeometry x="560" y="20" width="70" height="30" as="geometry" />
        </mxCell>
        <mxCell id="Mj7NcqfJF4TaLQdSg2ZQ-181" value="" style="endArrow=none;html=1;rounded=0;" edge="1" parent="1" source="Mj7NcqfJF4TaLQdSg2ZQ-180" target="Mj7NcqfJF4TaLQdSg2ZQ-33">
          <mxGeometry relative="1" as="geometry">
            <mxPoint x="614.05" y="49.73" as="sourcePoint" />
            <mxPoint x="560.05" y="82.73" as="targetPoint" />
          </mxGeometry>
        </mxCell>
        <mxCell id="Mj7NcqfJF4TaLQdSg2ZQ-182" value="참조하다" style="shape=rhombus;perimeter=rhombusPerimeter;whiteSpace=wrap;html=1;align=center;" vertex="1" parent="1">
          <mxGeometry x="-1001" y="547" width="120" height="60" as="geometry" />
        </mxCell>
        <mxCell id="Mj7NcqfJF4TaLQdSg2ZQ-183" value="장소 정보" style="rounded=0;whiteSpace=wrap;html=1;" vertex="1" parent="1">
          <mxGeometry x="-294" y="900" width="120" height="60" as="geometry" />
        </mxCell>
        <mxCell id="Mj7NcqfJF4TaLQdSg2ZQ-184" value="&lt;u&gt;장소ID&lt;/u&gt;" style="ellipse;whiteSpace=wrap;html=1;" vertex="1" parent="1">
          <mxGeometry x="-364" y="960" width="70" height="30" as="geometry" />
        </mxCell>
        <mxCell id="Mj7NcqfJF4TaLQdSg2ZQ-185" value="장소 이름" style="ellipse;whiteSpace=wrap;html=1;" vertex="1" parent="1">
          <mxGeometry x="-314" y="990" width="70" height="30" as="geometry" />
        </mxCell>
        <mxCell id="Mj7NcqfJF4TaLQdSg2ZQ-186" value="장소 위치" style="ellipse;whiteSpace=wrap;html=1;" vertex="1" parent="1">
          <mxGeometry x="-234" y="990" width="70" height="30" as="geometry" />
        </mxCell>
        <mxCell id="Mj7NcqfJF4TaLQdSg2ZQ-187" value="장소 설명" style="ellipse;whiteSpace=wrap;html=1;" vertex="1" parent="1">
          <mxGeometry x="-174" y="960" width="70" height="30" as="geometry" />
        </mxCell>
        <mxCell id="Mj7NcqfJF4TaLQdSg2ZQ-188" value="" style="endArrow=none;html=1;rounded=0;" edge="1" parent="1" source="Mj7NcqfJF4TaLQdSg2ZQ-184" target="Mj7NcqfJF4TaLQdSg2ZQ-183">
          <mxGeometry width="50" height="50" relative="1" as="geometry">
            <mxPoint x="-344" y="840" as="sourcePoint" />
            <mxPoint x="-294" y="790" as="targetPoint" />
          </mxGeometry>
        </mxCell>
        <mxCell id="Mj7NcqfJF4TaLQdSg2ZQ-189" value="" style="endArrow=none;html=1;rounded=0;" edge="1" parent="1" source="Mj7NcqfJF4TaLQdSg2ZQ-185" target="Mj7NcqfJF4TaLQdSg2ZQ-183">
          <mxGeometry width="50" height="50" relative="1" as="geometry">
            <mxPoint x="-344" y="840" as="sourcePoint" />
            <mxPoint x="-294" y="790" as="targetPoint" />
          </mxGeometry>
        </mxCell>
        <mxCell id="Mj7NcqfJF4TaLQdSg2ZQ-190" value="" style="endArrow=none;html=1;rounded=0;" edge="1" parent="1" source="Mj7NcqfJF4TaLQdSg2ZQ-186" target="Mj7NcqfJF4TaLQdSg2ZQ-183">
          <mxGeometry width="50" height="50" relative="1" as="geometry">
            <mxPoint x="-344" y="840" as="sourcePoint" />
            <mxPoint x="-294" y="790" as="targetPoint" />
          </mxGeometry>
        </mxCell>
        <mxCell id="Mj7NcqfJF4TaLQdSg2ZQ-191" value="" style="endArrow=none;html=1;rounded=0;" edge="1" parent="1" source="Mj7NcqfJF4TaLQdSg2ZQ-183" target="Mj7NcqfJF4TaLQdSg2ZQ-187">
          <mxGeometry width="50" height="50" relative="1" as="geometry">
            <mxPoint x="-344" y="840" as="sourcePoint" />
            <mxPoint x="-294" y="790" as="targetPoint" />
          </mxGeometry>
        </mxCell>
        <mxCell id="Mj7NcqfJF4TaLQdSg2ZQ-192" value="기록 되다" style="shape=rhombus;perimeter=rhombusPerimeter;whiteSpace=wrap;html=1;align=center;" vertex="1" parent="1">
          <mxGeometry x="-650" y="740" width="120" height="60" as="geometry" />
        </mxCell>
        <mxCell id="Mj7NcqfJF4TaLQdSg2ZQ-193" value="" style="shape=link;html=1;rounded=0;exitX=0.019;exitY=0.621;exitDx=0;exitDy=0;exitPerimeter=0;" edge="1" parent="1" source="Mj7NcqfJF4TaLQdSg2ZQ-183" target="Mj7NcqfJF4TaLQdSg2ZQ-192">
          <mxGeometry relative="1" as="geometry">
            <mxPoint x="-460" y="631.09" as="sourcePoint" />
            <mxPoint x="-300" y="631.09" as="targetPoint" />
          </mxGeometry>
        </mxCell>
        <mxCell id="Mj7NcqfJF4TaLQdSg2ZQ-194" value="N" style="resizable=0;html=1;whiteSpace=wrap;align=right;verticalAlign=bottom;" connectable="0" vertex="1" parent="Mj7NcqfJF4TaLQdSg2ZQ-193">
          <mxGeometry x="1" relative="1" as="geometry">
            <mxPoint x="37" y="9" as="offset" />
          </mxGeometry>
        </mxCell>
        <mxCell id="Mj7NcqfJF4TaLQdSg2ZQ-195" value="" style="endArrow=none;html=1;rounded=0;" edge="1" parent="1" source="Mj7NcqfJF4TaLQdSg2ZQ-159" target="Mj7NcqfJF4TaLQdSg2ZQ-192">
          <mxGeometry relative="1" as="geometry">
            <mxPoint x="-630" y="520" as="sourcePoint" />
            <mxPoint x="-470" y="520" as="targetPoint" />
          </mxGeometry>
        </mxCell>
        <mxCell id="Mj7NcqfJF4TaLQdSg2ZQ-196" value="1" style="resizable=0;html=1;whiteSpace=wrap;align=right;verticalAlign=bottom;" connectable="0" vertex="1" parent="Mj7NcqfJF4TaLQdSg2ZQ-195">
          <mxGeometry x="1" relative="1" as="geometry">
            <mxPoint x="12" y="-1" as="offset" />
          </mxGeometry>
        </mxCell>
        <mxCell id="Mj7NcqfJF4TaLQdSg2ZQ-197" value="&lt;u&gt;처리ID&lt;/u&gt;" style="ellipse;whiteSpace=wrap;html=1;container=0;" vertex="1" parent="1">
          <mxGeometry x="420.49" y="540" width="70" height="30" as="geometry" />
        </mxCell>
        <mxCell id="Mj7NcqfJF4TaLQdSg2ZQ-198" value="&lt;u&gt;신고ID&lt;/u&gt;" style="ellipse;whiteSpace=wrap;html=1;container=0;" vertex="1" parent="1">
          <mxGeometry x="670" y="517" width="70" height="30" as="geometry" />
        </mxCell>
        <mxCell id="Mj7NcqfJF4TaLQdSg2ZQ-199" value="신고 처리 결과" style="shape=ext;margin=3;double=1;whiteSpace=wrap;html=1;align=center;" vertex="1" parent="1">
          <mxGeometry x="505.49" y="520" width="100" height="40" as="geometry" />
        </mxCell>
        <mxCell id="Mj7NcqfJF4TaLQdSg2ZQ-200" value="처리하다" style="shape=rhombus;double=1;perimeter=rhombusPerimeter;whiteSpace=wrap;html=1;align=center;" vertex="1" parent="1">
          <mxGeometry x="495.49" y="426.17" width="120" height="60" as="geometry" />
        </mxCell>
        <mxCell id="Mj7NcqfJF4TaLQdSg2ZQ-201" value="정지 사유" style="ellipse;whiteSpace=wrap;html=1;container=0;" vertex="1" parent="1">
          <mxGeometry x="615.49" y="495" width="70" height="30" as="geometry" />
        </mxCell>
        <mxCell id="Mj7NcqfJF4TaLQdSg2ZQ-202" value="정지 기한" style="ellipse;whiteSpace=wrap;html=1;container=0;" vertex="1" parent="1">
          <mxGeometry x="615.49" y="540" width="70" height="30" as="geometry" />
        </mxCell>
        <mxCell id="Mj7NcqfJF4TaLQdSg2ZQ-203" value="" style="endArrow=none;html=1;rounded=0;" edge="1" parent="1" source="Mj7NcqfJF4TaLQdSg2ZQ-197" target="Mj7NcqfJF4TaLQdSg2ZQ-199">
          <mxGeometry relative="1" as="geometry">
            <mxPoint x="420" y="490" as="sourcePoint" />
            <mxPoint x="580" y="490" as="targetPoint" />
          </mxGeometry>
        </mxCell>
        <mxCell id="Mj7NcqfJF4TaLQdSg2ZQ-204" value="" style="endArrow=none;html=1;rounded=0;" edge="1" parent="1" source="Mj7NcqfJF4TaLQdSg2ZQ-198" target="Mj7NcqfJF4TaLQdSg2ZQ-199">
          <mxGeometry relative="1" as="geometry">
            <mxPoint x="420" y="490" as="sourcePoint" />
            <mxPoint x="580" y="490" as="targetPoint" />
          </mxGeometry>
        </mxCell>
        <mxCell id="Mj7NcqfJF4TaLQdSg2ZQ-205" value="" style="endArrow=none;html=1;rounded=0;" edge="1" parent="1" source="Mj7NcqfJF4TaLQdSg2ZQ-201" target="Mj7NcqfJF4TaLQdSg2ZQ-199">
          <mxGeometry relative="1" as="geometry">
            <mxPoint x="420" y="490" as="sourcePoint" />
            <mxPoint x="580" y="490" as="targetPoint" />
          </mxGeometry>
        </mxCell>
        <mxCell id="Mj7NcqfJF4TaLQdSg2ZQ-206" value="" style="endArrow=none;html=1;rounded=0;" edge="1" parent="1" source="Mj7NcqfJF4TaLQdSg2ZQ-199" target="Mj7NcqfJF4TaLQdSg2ZQ-202">
          <mxGeometry relative="1" as="geometry">
            <mxPoint x="420" y="490" as="sourcePoint" />
            <mxPoint x="580" y="490" as="targetPoint" />
          </mxGeometry>
        </mxCell>
        <mxCell id="Mj7NcqfJF4TaLQdSg2ZQ-207" value="" style="shape=link;html=1;rounded=0;" edge="1" parent="1" source="Mj7NcqfJF4TaLQdSg2ZQ-199" target="Mj7NcqfJF4TaLQdSg2ZQ-200">
          <mxGeometry relative="1" as="geometry">
            <mxPoint x="420" y="490" as="sourcePoint" />
            <mxPoint x="580" y="490" as="targetPoint" />
          </mxGeometry>
        </mxCell>
        <mxCell id="Mj7NcqfJF4TaLQdSg2ZQ-208" value="1" style="resizable=0;html=1;whiteSpace=wrap;align=right;verticalAlign=bottom;" connectable="0" vertex="1" parent="Mj7NcqfJF4TaLQdSg2ZQ-207">
          <mxGeometry x="1" relative="1" as="geometry">
            <mxPoint x="-4" y="15" as="offset" />
          </mxGeometry>
        </mxCell>
        <mxCell id="Mj7NcqfJF4TaLQdSg2ZQ-209" value="" style="endArrow=none;html=1;rounded=0;" edge="1" parent="1" source="Mj7NcqfJF4TaLQdSg2ZQ-60" target="Mj7NcqfJF4TaLQdSg2ZQ-200">
          <mxGeometry relative="1" as="geometry">
            <mxPoint x="420" y="490" as="sourcePoint" />
            <mxPoint x="580" y="490" as="targetPoint" />
          </mxGeometry>
        </mxCell>
        <mxCell id="Mj7NcqfJF4TaLQdSg2ZQ-210" value="1" style="resizable=0;html=1;whiteSpace=wrap;align=right;verticalAlign=bottom;" connectable="0" vertex="1" parent="Mj7NcqfJF4TaLQdSg2ZQ-209">
          <mxGeometry x="1" relative="1" as="geometry">
            <mxPoint x="-4" y="1" as="offset" />
          </mxGeometry>
        </mxCell>
        <mxCell id="Mj7NcqfJF4TaLQdSg2ZQ-211" value="설정" style="shape=ext;margin=3;double=1;whiteSpace=wrap;html=1;align=center;" vertex="1" parent="1">
          <mxGeometry x="-279" y="-250" width="100" height="40" as="geometry" />
        </mxCell>
        <mxCell id="Mj7NcqfJF4TaLQdSg2ZQ-212" value="기록 하다" style="shape=rhombus;double=1;perimeter=rhombusPerimeter;whiteSpace=wrap;html=1;align=center;" vertex="1" parent="1">
          <mxGeometry x="-160" y="-134" width="120" height="60" as="geometry" />
        </mxCell>
        <mxCell id="Mj7NcqfJF4TaLQdSg2ZQ-213" value="" style="shape=link;html=1;rounded=0;" edge="1" parent="1" source="Mj7NcqfJF4TaLQdSg2ZQ-44" target="Mj7NcqfJF4TaLQdSg2ZQ-212">
          <mxGeometry relative="1" as="geometry">
            <mxPoint x="-170" y="-120" as="sourcePoint" />
            <mxPoint x="-10" y="-120" as="targetPoint" />
          </mxGeometry>
        </mxCell>
        <mxCell id="Mj7NcqfJF4TaLQdSg2ZQ-214" value="1" style="resizable=0;html=1;whiteSpace=wrap;align=right;verticalAlign=bottom;" connectable="0" vertex="1" parent="Mj7NcqfJF4TaLQdSg2ZQ-213">
          <mxGeometry x="1" relative="1" as="geometry">
            <mxPoint x="-4" y="14" as="offset" />
          </mxGeometry>
        </mxCell>
        <mxCell id="Mj7NcqfJF4TaLQdSg2ZQ-215" value="" style="shape=link;html=1;rounded=0;" edge="1" parent="1" source="Mj7NcqfJF4TaLQdSg2ZQ-211" target="Mj7NcqfJF4TaLQdSg2ZQ-212">
          <mxGeometry relative="1" as="geometry">
            <mxPoint x="-115" y="-169" as="sourcePoint" />
            <mxPoint x="45" y="-169" as="targetPoint" />
          </mxGeometry>
        </mxCell>
        <mxCell id="Mj7NcqfJF4TaLQdSg2ZQ-216" value="1" style="resizable=0;html=1;whiteSpace=wrap;align=right;verticalAlign=bottom;" connectable="0" vertex="1" parent="Mj7NcqfJF4TaLQdSg2ZQ-215">
          <mxGeometry x="1" relative="1" as="geometry">
            <mxPoint x="-24" y="4" as="offset" />
          </mxGeometry>
        </mxCell>
        <mxCell id="Mj7NcqfJF4TaLQdSg2ZQ-217" value="야간모드" style="ellipse;whiteSpace=wrap;html=1;" vertex="1" parent="1">
          <mxGeometry x="-334" y="-290" width="70" height="30" as="geometry" />
        </mxCell>
        <mxCell id="Mj7NcqfJF4TaLQdSg2ZQ-218" value="알림강도" style="ellipse;whiteSpace=wrap;html=1;" vertex="1" parent="1">
          <mxGeometry x="-189" y="-290" width="70" height="30" as="geometry" />
        </mxCell>
        <mxCell id="Mj7NcqfJF4TaLQdSg2ZQ-219" value="색약모드" style="ellipse;whiteSpace=wrap;html=1;" vertex="1" parent="1">
          <mxGeometry x="-264" y="-290" width="70" height="30" as="geometry" />
        </mxCell>
        <mxCell id="Mj7NcqfJF4TaLQdSg2ZQ-220" value="&lt;u&gt;설정ID&lt;/u&gt;" style="ellipse;whiteSpace=wrap;html=1;" vertex="1" parent="1">
          <mxGeometry x="-328" y="-200" width="70" height="30" as="geometry" />
        </mxCell>
        <mxCell id="Mj7NcqfJF4TaLQdSg2ZQ-221" value="&lt;u&gt;사용자ID&lt;/u&gt;" style="ellipse;whiteSpace=wrap;html=1;" vertex="1" parent="1">
          <mxGeometry x="-359" y="-245" width="70" height="30" as="geometry" />
        </mxCell>
        <mxCell id="Mj7NcqfJF4TaLQdSg2ZQ-222" value="" style="endArrow=none;html=1;rounded=0;" edge="1" parent="1" source="Mj7NcqfJF4TaLQdSg2ZQ-217" target="Mj7NcqfJF4TaLQdSg2ZQ-211">
          <mxGeometry relative="1" as="geometry">
            <mxPoint x="-319" y="-210" as="sourcePoint" />
            <mxPoint x="-159" y="-210" as="targetPoint" />
          </mxGeometry>
        </mxCell>
        <mxCell id="Mj7NcqfJF4TaLQdSg2ZQ-223" value="" style="endArrow=none;html=1;rounded=0;" edge="1" parent="1" source="Mj7NcqfJF4TaLQdSg2ZQ-220" target="Mj7NcqfJF4TaLQdSg2ZQ-211">
          <mxGeometry relative="1" as="geometry">
            <mxPoint x="-319" y="-210" as="sourcePoint" />
            <mxPoint x="-159" y="-210" as="targetPoint" />
          </mxGeometry>
        </mxCell>
        <mxCell id="Mj7NcqfJF4TaLQdSg2ZQ-224" value="" style="endArrow=none;html=1;rounded=0;" edge="1" parent="1" source="Mj7NcqfJF4TaLQdSg2ZQ-221" target="Mj7NcqfJF4TaLQdSg2ZQ-211">
          <mxGeometry relative="1" as="geometry">
            <mxPoint x="-319" y="-210" as="sourcePoint" />
            <mxPoint x="-159" y="-210" as="targetPoint" />
          </mxGeometry>
        </mxCell>
        <mxCell id="Mj7NcqfJF4TaLQdSg2ZQ-225" value="" style="endArrow=none;html=1;rounded=0;" edge="1" parent="1" source="Mj7NcqfJF4TaLQdSg2ZQ-219" target="Mj7NcqfJF4TaLQdSg2ZQ-211">
          <mxGeometry relative="1" as="geometry">
            <mxPoint x="-319" y="-210" as="sourcePoint" />
            <mxPoint x="-219" y="-200" as="targetPoint" />
          </mxGeometry>
        </mxCell>
        <mxCell id="Mj7NcqfJF4TaLQdSg2ZQ-226" value="" style="endArrow=none;html=1;rounded=0;" edge="1" parent="1" source="Mj7NcqfJF4TaLQdSg2ZQ-218" target="Mj7NcqfJF4TaLQdSg2ZQ-211">
          <mxGeometry relative="1" as="geometry">
            <mxPoint x="-319" y="-210" as="sourcePoint" />
            <mxPoint x="-159" y="-210" as="targetPoint" />
          </mxGeometry>
        </mxCell>
        <mxCell id="Mj7NcqfJF4TaLQdSg2ZQ-227" value="위험 지역 기록 정보" style="rounded=0;whiteSpace=wrap;html=1;" vertex="1" parent="1">
          <mxGeometry x="-845" y="630" width="120" height="60" as="geometry" />
        </mxCell>
        <mxCell id="Mj7NcqfJF4TaLQdSg2ZQ-228" value="참조하다" style="shape=rhombus;perimeter=rhombusPerimeter;whiteSpace=wrap;html=1;align=center;" vertex="1" parent="1">
          <mxGeometry x="-980" y="349.99999999999994" width="120" height="60" as="geometry" />
        </mxCell>
        <mxCell id="Mj7NcqfJF4TaLQdSg2ZQ-229" value="" style="shape=link;html=1;rounded=0;" edge="1" parent="1" source="Mj7NcqfJF4TaLQdSg2ZQ-130" target="Mj7NcqfJF4TaLQdSg2ZQ-228">
          <mxGeometry relative="1" as="geometry">
            <mxPoint x="-1046.32" y="455.00395309119864" as="sourcePoint" />
            <mxPoint x="-660.66" y="453.32" as="targetPoint" />
          </mxGeometry>
        </mxCell>
        <mxCell id="Mj7NcqfJF4TaLQdSg2ZQ-230" value="1" style="resizable=0;html=1;whiteSpace=wrap;align=right;verticalAlign=bottom;" connectable="0" vertex="1" parent="Mj7NcqfJF4TaLQdSg2ZQ-229">
          <mxGeometry x="1" relative="1" as="geometry">
            <mxPoint x="5" y="23" as="offset" />
          </mxGeometry>
        </mxCell>
        <mxCell id="Mj7NcqfJF4TaLQdSg2ZQ-231" value="" style="endArrow=none;html=1;rounded=0;" edge="1" parent="1" source="Mj7NcqfJF4TaLQdSg2ZQ-89" target="Mj7NcqfJF4TaLQdSg2ZQ-228">
          <mxGeometry relative="1" as="geometry">
            <mxPoint x="-793.6832815665093" y="309.01000000000005" as="sourcePoint" />
            <mxPoint x="-670.66" y="352.48999999999995" as="targetPoint" />
          </mxGeometry>
        </mxCell>
        <mxCell id="Mj7NcqfJF4TaLQdSg2ZQ-232" value="N" style="resizable=0;html=1;whiteSpace=wrap;align=right;verticalAlign=bottom;" connectable="0" vertex="1" parent="Mj7NcqfJF4TaLQdSg2ZQ-231">
          <mxGeometry x="1" relative="1" as="geometry">
            <mxPoint x="28" y="8" as="offset" />
          </mxGeometry>
        </mxCell>
        <mxCell id="Mj7NcqfJF4TaLQdSg2ZQ-233" value="&lt;u&gt;위험지역ID&lt;/u&gt;" style="ellipse;whiteSpace=wrap;html=1;" vertex="1" parent="1">
          <mxGeometry x="-940" y="665" width="70" height="30" as="geometry" />
        </mxCell>
        <mxCell id="Mj7NcqfJF4TaLQdSg2ZQ-234" value="" style="endArrow=none;html=1;rounded=0;" edge="1" parent="1" source="Mj7NcqfJF4TaLQdSg2ZQ-233" target="Mj7NcqfJF4TaLQdSg2ZQ-227">
          <mxGeometry relative="1" as="geometry">
            <mxPoint x="-970" y="640" as="sourcePoint" />
            <mxPoint x="-810" y="640" as="targetPoint" />
          </mxGeometry>
        </mxCell>
        <mxCell id="Mj7NcqfJF4TaLQdSg2ZQ-235" value="" style="shape=link;html=1;rounded=0;entryX=0.747;entryY=0.717;entryDx=0;entryDy=0;entryPerimeter=0;" edge="1" parent="1" source="Mj7NcqfJF4TaLQdSg2ZQ-227" target="Mj7NcqfJF4TaLQdSg2ZQ-182">
          <mxGeometry relative="1" as="geometry">
            <mxPoint x="-844.9955421686749" y="630" as="sourcePoint" />
            <mxPoint x="-920" y="590" as="targetPoint" />
          </mxGeometry>
        </mxCell>
        <mxCell id="Mj7NcqfJF4TaLQdSg2ZQ-236" value="N" style="resizable=0;html=1;whiteSpace=wrap;align=right;verticalAlign=bottom;" connectable="0" vertex="1" parent="Mj7NcqfJF4TaLQdSg2ZQ-235">
          <mxGeometry x="1" relative="1" as="geometry">
            <mxPoint x="30" y="10" as="offset" />
          </mxGeometry>
        </mxCell>
        <mxCell id="Mj7NcqfJF4TaLQdSg2ZQ-237" value="" style="endArrow=none;html=1;rounded=0;" edge="1" parent="1" source="Mj7NcqfJF4TaLQdSg2ZQ-130" target="Mj7NcqfJF4TaLQdSg2ZQ-182">
          <mxGeometry relative="1" as="geometry">
            <mxPoint x="-1030" y="520" as="sourcePoint" />
            <mxPoint x="-870" y="520" as="targetPoint" />
          </mxGeometry>
        </mxCell>
        <mxCell id="Mj7NcqfJF4TaLQdSg2ZQ-238" value="1" style="resizable=0;html=1;whiteSpace=wrap;align=right;verticalAlign=bottom;" connectable="0" vertex="1" parent="Mj7NcqfJF4TaLQdSg2ZQ-237">
          <mxGeometry x="1" relative="1" as="geometry">
            <mxPoint x="4" y="-4" as="offset" />
          </mxGeometry>
        </mxCell>
        <mxCell id="Mj7NcqfJF4TaLQdSg2ZQ-239" value="위험위치" style="ellipse;whiteSpace=wrap;html=1;" vertex="1" parent="1">
          <mxGeometry x="-910" y="700" width="70" height="30" as="geometry" />
        </mxCell>
        <mxCell id="Mj7NcqfJF4TaLQdSg2ZQ-240" value="위험단계" style="ellipse;whiteSpace=wrap;html=1;" vertex="1" parent="1">
          <mxGeometry x="-830" y="710" width="70" height="30" as="geometry" />
        </mxCell>
        <mxCell id="Mj7NcqfJF4TaLQdSg2ZQ-241" value="위험반경" style="ellipse;whiteSpace=wrap;html=1;" vertex="1" parent="1">
          <mxGeometry x="-750" y="710" width="70" height="30" as="geometry" />
        </mxCell>
        <mxCell id="Mj7NcqfJF4TaLQdSg2ZQ-242" value="" style="endArrow=none;html=1;rounded=0;" edge="1" parent="1" source="Mj7NcqfJF4TaLQdSg2ZQ-239" target="Mj7NcqfJF4TaLQdSg2ZQ-227">
          <mxGeometry relative="1" as="geometry">
            <mxPoint x="-850" y="620" as="sourcePoint" />
            <mxPoint x="-690" y="620" as="targetPoint" />
          </mxGeometry>
        </mxCell>
        <mxCell id="Mj7NcqfJF4TaLQdSg2ZQ-243" value="" style="endArrow=none;html=1;rounded=0;" edge="1" parent="1" source="Mj7NcqfJF4TaLQdSg2ZQ-240" target="Mj7NcqfJF4TaLQdSg2ZQ-227">
          <mxGeometry relative="1" as="geometry">
            <mxPoint x="-850" y="620" as="sourcePoint" />
            <mxPoint x="-690" y="620" as="targetPoint" />
          </mxGeometry>
        </mxCell>
        <mxCell id="Mj7NcqfJF4TaLQdSg2ZQ-244" value="" style="endArrow=none;html=1;rounded=0;" edge="1" parent="1" source="Mj7NcqfJF4TaLQdSg2ZQ-227" target="Mj7NcqfJF4TaLQdSg2ZQ-241">
          <mxGeometry relative="1" as="geometry">
            <mxPoint x="-707.5" y="689.9968421052629" as="sourcePoint" />
            <mxPoint x="-672.5" y="675.26" as="targetPoint" />
          </mxGeometry>
        </mxCell>
        <mxCell id="Mj7NcqfJF4TaLQdSg2ZQ-245" value="목적지정보" style="shape=ext;margin=3;double=1;whiteSpace=wrap;html=1;align=center;" vertex="1" parent="1">
          <mxGeometry x="-450" y="567" width="100" height="40" as="geometry" />
        </mxCell>
        <mxCell id="Mj7NcqfJF4TaLQdSg2ZQ-246" value="&lt;u&gt;경로ID&lt;/u&gt;" style="ellipse;whiteSpace=wrap;html=1;container=0;" vertex="1" parent="1">
          <mxGeometry x="-530" y="550" width="70" height="30" as="geometry" />
        </mxCell>
        <mxCell id="Mj7NcqfJF4TaLQdSg2ZQ-247" value="&lt;u&gt;경로정보ID&lt;/u&gt;" style="ellipse;whiteSpace=wrap;html=1;container=0;" vertex="1" parent="1">
          <mxGeometry x="-530" y="590" width="70" height="30" as="geometry" />
        </mxCell>
        <mxCell id="Mj7NcqfJF4TaLQdSg2ZQ-250" value="목적지종류" style="ellipse;whiteSpace=wrap;html=1;container=0;" vertex="1" parent="1">
          <mxGeometry x="-475" y="520" width="70" height="30" as="geometry" />
        </mxCell>
        <mxCell id="Mj7NcqfJF4TaLQdSg2ZQ-251" value="위치" style="ellipse;whiteSpace=wrap;html=1;container=0;" vertex="1" parent="1">
          <mxGeometry x="-364" y="607" width="70" height="30" as="geometry" />
        </mxCell>
        <mxCell id="Mj7NcqfJF4TaLQdSg2ZQ-252" value="" style="endArrow=none;html=1;rounded=0;fontSize=12;startSize=8;endSize=8;curved=1;" edge="1" parent="1" source="Mj7NcqfJF4TaLQdSg2ZQ-250" target="Mj7NcqfJF4TaLQdSg2ZQ-245">
          <mxGeometry relative="1" as="geometry">
            <mxPoint x="-305" y="660" as="sourcePoint" />
            <mxPoint x="-145" y="660" as="targetPoint" />
          </mxGeometry>
        </mxCell>
        <mxCell id="Mj7NcqfJF4TaLQdSg2ZQ-253" value="" style="endArrow=none;html=1;rounded=0;fontSize=12;startSize=8;endSize=8;curved=1;" edge="1" parent="1" source="Mj7NcqfJF4TaLQdSg2ZQ-246" target="Mj7NcqfJF4TaLQdSg2ZQ-245">
          <mxGeometry relative="1" as="geometry">
            <mxPoint x="-425" y="670" as="sourcePoint" />
            <mxPoint x="-265" y="670" as="targetPoint" />
          </mxGeometry>
        </mxCell>
        <mxCell id="Mj7NcqfJF4TaLQdSg2ZQ-254" value="" style="endArrow=none;html=1;rounded=0;fontSize=12;startSize=8;endSize=8;curved=1;" edge="1" parent="1" source="Mj7NcqfJF4TaLQdSg2ZQ-247" target="Mj7NcqfJF4TaLQdSg2ZQ-245">
          <mxGeometry relative="1" as="geometry">
            <mxPoint x="-305" y="660" as="sourcePoint" />
            <mxPoint x="-145" y="660" as="targetPoint" />
          </mxGeometry>
        </mxCell>
        <mxCell id="Mj7NcqfJF4TaLQdSg2ZQ-255" value="" style="endArrow=none;html=1;rounded=0;fontSize=12;startSize=8;endSize=8;curved=1;" edge="1" parent="1" source="Mj7NcqfJF4TaLQdSg2ZQ-251" target="Mj7NcqfJF4TaLQdSg2ZQ-245">
          <mxGeometry relative="1" as="geometry">
            <mxPoint x="-305" y="660" as="sourcePoint" />
            <mxPoint x="-145" y="660" as="targetPoint" />
          </mxGeometry>
        </mxCell>
        <mxCell id="Mj7NcqfJF4TaLQdSg2ZQ-256" value="기록하다" style="shape=rhombus;double=1;perimeter=rhombusPerimeter;whiteSpace=wrap;html=1;align=center;" vertex="1" parent="1">
          <mxGeometry x="-400" y="480" width="120" height="60" as="geometry" />
        </mxCell>
        <mxCell id="Mj7NcqfJF4TaLQdSg2ZQ-257" value="" style="shape=link;html=1;rounded=0;fontSize=12;startSize=8;endSize=8;curved=1;" edge="1" parent="1" source="Mj7NcqfJF4TaLQdSg2ZQ-144" target="Mj7NcqfJF4TaLQdSg2ZQ-256">
          <mxGeometry relative="1" as="geometry">
            <mxPoint x="-281.49818459774497" y="426.17000000000013" as="sourcePoint" />
            <mxPoint x="-95" y="530.83" as="targetPoint" />
          </mxGeometry>
        </mxCell>
        <mxCell id="Mj7NcqfJF4TaLQdSg2ZQ-258" value="N" style="resizable=0;html=1;whiteSpace=wrap;align=right;verticalAlign=bottom;" connectable="0" vertex="1" parent="Mj7NcqfJF4TaLQdSg2ZQ-257">
          <mxGeometry x="1" relative="1" as="geometry">
            <mxPoint x="2" y="-3" as="offset" />
          </mxGeometry>
        </mxCell>
        <mxCell id="Mj7NcqfJF4TaLQdSg2ZQ-259" value="" style="shape=link;html=1;rounded=0;fontSize=12;startSize=8;endSize=8;curved=1;" edge="1" parent="1" source="Mj7NcqfJF4TaLQdSg2ZQ-245" target="Mj7NcqfJF4TaLQdSg2ZQ-256">
          <mxGeometry relative="1" as="geometry">
            <mxPoint x="-270" y="530.83" as="sourcePoint" />
            <mxPoint x="-358.82352941176487" y="526.4182352941176" as="targetPoint" />
          </mxGeometry>
        </mxCell>
        <mxCell id="Mj7NcqfJF4TaLQdSg2ZQ-260" value="1" style="resizable=0;html=1;whiteSpace=wrap;align=right;verticalAlign=bottom;" connectable="0" vertex="1" parent="Mj7NcqfJF4TaLQdSg2ZQ-259">
          <mxGeometry x="1" relative="1" as="geometry">
            <mxPoint x="-13" y="9" as="offset" />
          </mxGeometry>
        </mxCell>
        <mxCell id="Mj7NcqfJF4TaLQdSg2ZQ-261" value="목적지정보" style="shape=ext;margin=3;double=1;whiteSpace=wrap;html=1;align=center;" vertex="1" parent="1">
          <mxGeometry x="-119" y="566" width="100" height="40" as="geometry" />
        </mxCell>
        <mxCell id="Mj7NcqfJF4TaLQdSg2ZQ-262" value="&lt;u&gt;경로ID&lt;/u&gt;" style="ellipse;whiteSpace=wrap;html=1;container=0;" vertex="1" parent="1">
          <mxGeometry x="-199" y="549" width="70" height="30" as="geometry" />
        </mxCell>
        <mxCell id="Mj7NcqfJF4TaLQdSg2ZQ-263" value="&lt;u&gt;경로정보ID&lt;/u&gt;" style="ellipse;whiteSpace=wrap;html=1;container=0;" vertex="1" parent="1">
          <mxGeometry x="-199" y="589" width="70" height="30" as="geometry" />
        </mxCell>
        <mxCell id="Mj7NcqfJF4TaLQdSg2ZQ-264" value="목적지종류" style="ellipse;whiteSpace=wrap;html=1;container=0;" vertex="1" parent="1">
          <mxGeometry x="-144" y="519" width="70" height="30" as="geometry" />
        </mxCell>
        <mxCell id="Mj7NcqfJF4TaLQdSg2ZQ-265" value="위치" style="ellipse;whiteSpace=wrap;html=1;container=0;" vertex="1" parent="1">
          <mxGeometry x="-20" y="617" width="70" height="30" as="geometry" />
        </mxCell>
        <mxCell id="Mj7NcqfJF4TaLQdSg2ZQ-266" value="" style="endArrow=none;html=1;rounded=0;fontSize=12;startSize=8;endSize=8;curved=1;" edge="1" source="Mj7NcqfJF4TaLQdSg2ZQ-264" target="Mj7NcqfJF4TaLQdSg2ZQ-261" parent="1">
          <mxGeometry relative="1" as="geometry">
            <mxPoint x="26" y="659" as="sourcePoint" />
            <mxPoint x="186" y="659" as="targetPoint" />
          </mxGeometry>
        </mxCell>
        <mxCell id="Mj7NcqfJF4TaLQdSg2ZQ-267" value="" style="endArrow=none;html=1;rounded=0;fontSize=12;startSize=8;endSize=8;curved=1;" edge="1" source="Mj7NcqfJF4TaLQdSg2ZQ-262" target="Mj7NcqfJF4TaLQdSg2ZQ-261" parent="1">
          <mxGeometry relative="1" as="geometry">
            <mxPoint x="-94" y="669" as="sourcePoint" />
            <mxPoint x="66" y="669" as="targetPoint" />
          </mxGeometry>
        </mxCell>
        <mxCell id="Mj7NcqfJF4TaLQdSg2ZQ-268" value="" style="endArrow=none;html=1;rounded=0;fontSize=12;startSize=8;endSize=8;curved=1;" edge="1" source="Mj7NcqfJF4TaLQdSg2ZQ-263" target="Mj7NcqfJF4TaLQdSg2ZQ-261" parent="1">
          <mxGeometry relative="1" as="geometry">
            <mxPoint x="26" y="659" as="sourcePoint" />
            <mxPoint x="186" y="659" as="targetPoint" />
          </mxGeometry>
        </mxCell>
        <mxCell id="Mj7NcqfJF4TaLQdSg2ZQ-269" value="" style="endArrow=none;html=1;rounded=0;fontSize=12;startSize=8;endSize=8;curved=1;" edge="1" source="Mj7NcqfJF4TaLQdSg2ZQ-265" target="Mj7NcqfJF4TaLQdSg2ZQ-261" parent="1">
          <mxGeometry relative="1" as="geometry">
            <mxPoint x="26" y="659" as="sourcePoint" />
            <mxPoint x="186" y="659" as="targetPoint" />
          </mxGeometry>
        </mxCell>
        <mxCell id="Mj7NcqfJF4TaLQdSg2ZQ-270" value="" style="shape=link;html=1;rounded=0;fontSize=12;startSize=8;endSize=8;curved=1;" edge="1" source="Mj7NcqfJF4TaLQdSg2ZQ-261" target="Mj7NcqfJF4TaLQdSg2ZQ-274" parent="1">
          <mxGeometry relative="1" as="geometry">
            <mxPoint x="41" y="529" as="sourcePoint" />
            <mxPoint x="-47.823529411764866" y="524.5882352941176" as="targetPoint" />
          </mxGeometry>
        </mxCell>
        <mxCell id="Mj7NcqfJF4TaLQdSg2ZQ-271" value="1" style="resizable=0;html=1;whiteSpace=wrap;align=right;verticalAlign=bottom;" connectable="0" vertex="1" parent="Mj7NcqfJF4TaLQdSg2ZQ-270">
          <mxGeometry x="1" relative="1" as="geometry">
            <mxPoint x="-9" y="11" as="offset" />
          </mxGeometry>
        </mxCell>
        <mxCell id="Mj7NcqfJF4TaLQdSg2ZQ-272" value="" style="shape=link;html=1;rounded=0;fontSize=12;startSize=8;endSize=8;curved=1;" edge="1" target="Mj7NcqfJF4TaLQdSg2ZQ-274" parent="1" source="Mj7NcqfJF4TaLQdSg2ZQ-135">
          <mxGeometry relative="1" as="geometry">
            <mxPoint x="30" y="424" as="sourcePoint" />
            <mxPoint x="216" y="529" as="targetPoint" />
          </mxGeometry>
        </mxCell>
        <mxCell id="Mj7NcqfJF4TaLQdSg2ZQ-273" value="N" style="resizable=0;html=1;whiteSpace=wrap;align=right;verticalAlign=bottom;" connectable="0" vertex="1" parent="Mj7NcqfJF4TaLQdSg2ZQ-272">
          <mxGeometry x="1" relative="1" as="geometry">
            <mxPoint x="2" y="-3" as="offset" />
          </mxGeometry>
        </mxCell>
        <mxCell id="Mj7NcqfJF4TaLQdSg2ZQ-274" value="기록하다" style="shape=rhombus;double=1;perimeter=rhombusPerimeter;whiteSpace=wrap;html=1;align=center;" vertex="1" parent="1">
          <mxGeometry x="-70" y="480" width="120" height="60" as="geometry" />
        </mxCell>
        <mxCell id="Mj7NcqfJF4TaLQdSg2ZQ-275" value="참고하다" style="shape=rhombus;perimeter=rhombusPerimeter;whiteSpace=wrap;html=1;align=center;" vertex="1" parent="1">
          <mxGeometry x="-380" y="720" width="120" height="60" as="geometry" />
        </mxCell>
        <mxCell id="Mj7NcqfJF4TaLQdSg2ZQ-276" value="" style="endArrow=none;html=1;rounded=0;fontSize=12;startSize=8;endSize=8;curved=1;" edge="1" parent="1" source="Mj7NcqfJF4TaLQdSg2ZQ-245" target="Mj7NcqfJF4TaLQdSg2ZQ-275">
          <mxGeometry relative="1" as="geometry">
            <mxPoint x="-260" y="660" as="sourcePoint" />
            <mxPoint x="-100" y="660" as="targetPoint" />
          </mxGeometry>
        </mxCell>
        <mxCell id="Mj7NcqfJF4TaLQdSg2ZQ-277" value="N" style="resizable=0;html=1;whiteSpace=wrap;align=right;verticalAlign=bottom;" connectable="0" vertex="1" parent="Mj7NcqfJF4TaLQdSg2ZQ-276">
          <mxGeometry x="1" relative="1" as="geometry">
            <mxPoint x="-11" y="6" as="offset" />
          </mxGeometry>
        </mxCell>
        <mxCell id="Mj7NcqfJF4TaLQdSg2ZQ-278" value="" style="endArrow=none;html=1;rounded=0;fontSize=12;startSize=8;endSize=8;curved=1;" edge="1" parent="1" source="Mj7NcqfJF4TaLQdSg2ZQ-183" target="Mj7NcqfJF4TaLQdSg2ZQ-275">
          <mxGeometry relative="1" as="geometry">
            <mxPoint x="-260" y="660" as="sourcePoint" />
            <mxPoint x="-100" y="660" as="targetPoint" />
          </mxGeometry>
        </mxCell>
        <mxCell id="Mj7NcqfJF4TaLQdSg2ZQ-279" value="M" style="resizable=0;html=1;whiteSpace=wrap;align=right;verticalAlign=bottom;" connectable="0" vertex="1" parent="Mj7NcqfJF4TaLQdSg2ZQ-278">
          <mxGeometry x="1" relative="1" as="geometry">
            <mxPoint x="1" y="28" as="offset" />
          </mxGeometry>
        </mxCell>
        <mxCell id="Mj7NcqfJF4TaLQdSg2ZQ-280" value="참고하다" style="shape=rhombus;perimeter=rhombusPerimeter;whiteSpace=wrap;html=1;align=center;" vertex="1" parent="1">
          <mxGeometry x="-205" y="720" width="120" height="60" as="geometry" />
        </mxCell>
        <mxCell id="Mj7NcqfJF4TaLQdSg2ZQ-281" value="" style="endArrow=none;html=1;rounded=0;fontSize=12;startSize=8;endSize=8;curved=1;" edge="1" target="Mj7NcqfJF4TaLQdSg2ZQ-280" parent="1" source="Mj7NcqfJF4TaLQdSg2ZQ-183">
          <mxGeometry relative="1" as="geometry">
            <mxPoint x="-62.81999999999999" y="930" as="sourcePoint" />
            <mxPoint x="85.18" y="690" as="targetPoint" />
          </mxGeometry>
        </mxCell>
        <mxCell id="Mj7NcqfJF4TaLQdSg2ZQ-282" value="M" style="resizable=0;html=1;whiteSpace=wrap;align=right;verticalAlign=bottom;" connectable="0" vertex="1" parent="Mj7NcqfJF4TaLQdSg2ZQ-281">
          <mxGeometry x="1" relative="1" as="geometry">
            <mxPoint x="-7" y="16" as="offset" />
          </mxGeometry>
        </mxCell>
        <mxCell id="Mj7NcqfJF4TaLQdSg2ZQ-283" value="" style="endArrow=none;html=1;rounded=0;fontSize=12;startSize=8;endSize=8;curved=1;" edge="1" target="Mj7NcqfJF4TaLQdSg2ZQ-280" parent="1" source="Mj7NcqfJF4TaLQdSg2ZQ-261">
          <mxGeometry relative="1" as="geometry">
            <mxPoint x="-204.82" y="637" as="sourcePoint" />
            <mxPoint x="85.18" y="690" as="targetPoint" />
          </mxGeometry>
        </mxCell>
        <mxCell id="Mj7NcqfJF4TaLQdSg2ZQ-284" value="N" style="resizable=0;html=1;whiteSpace=wrap;align=right;verticalAlign=bottom;" connectable="0" vertex="1" parent="Mj7NcqfJF4TaLQdSg2ZQ-283">
          <mxGeometry x="1" relative="1" as="geometry">
            <mxPoint x="-1" y="-6" as="offset" />
          </mxGeometry>
        </mxCell>
        <mxCell id="Mj7NcqfJF4TaLQdSg2ZQ-285" value="처리하다" style="shape=rhombus;perimeter=rhombusPerimeter;whiteSpace=wrap;html=1;align=center;" vertex="1" parent="1">
          <mxGeometry x="200" y="325.34000000000003" width="120" height="60" as="geometry" />
        </mxCell>
        <mxCell id="Mj7NcqfJF4TaLQdSg2ZQ-286" value="" style="endArrow=none;html=1;rounded=0;fontSize=12;startSize=8;endSize=8;curved=1;exitX=0.85;exitY=0.933;exitDx=0;exitDy=0;exitPerimeter=0;" edge="1" parent="1" source="Mj7NcqfJF4TaLQdSg2ZQ-44" target="Mj7NcqfJF4TaLQdSg2ZQ-285">
          <mxGeometry relative="1" as="geometry">
            <mxPoint x="130" y="390" as="sourcePoint" />
            <mxPoint x="290" y="390" as="targetPoint" />
          </mxGeometry>
        </mxCell>
        <mxCell id="Mj7NcqfJF4TaLQdSg2ZQ-287" value="N" style="resizable=0;html=1;whiteSpace=wrap;align=right;verticalAlign=bottom;" connectable="0" vertex="1" parent="Mj7NcqfJF4TaLQdSg2ZQ-286">
          <mxGeometry x="1" relative="1" as="geometry">
            <mxPoint x="6" y="-2" as="offset" />
          </mxGeometry>
        </mxCell>
        <mxCell id="Mj7NcqfJF4TaLQdSg2ZQ-288" value="" style="shape=link;html=1;rounded=0;fontSize=12;startSize=8;endSize=8;curved=1;" edge="1" parent="1" source="Mj7NcqfJF4TaLQdSg2ZQ-199" target="Mj7NcqfJF4TaLQdSg2ZQ-285">
          <mxGeometry relative="1" as="geometry">
            <mxPoint x="130" y="390" as="sourcePoint" />
            <mxPoint x="290" y="390" as="targetPoint" />
          </mxGeometry>
        </mxCell>
        <mxCell id="Mj7NcqfJF4TaLQdSg2ZQ-289" value="M" style="resizable=0;html=1;whiteSpace=wrap;align=right;verticalAlign=bottom;" connectable="0" vertex="1" parent="Mj7NcqfJF4TaLQdSg2ZQ-288">
          <mxGeometry x="1" relative="1" as="geometry">
            <mxPoint x="30" y="9" as="offset" />
          </mxGeometry>
        </mxCell>
      </root>
    </mxGraphModel>
  </diagram>
</mxfile>
